<svg preserveAspectRatio="none" width="100%" height="100%" overflow="visible" style="display: block;" viewBox="0 0 15.9962 15.9962" fill="none" xmlns="http://www.w3.org/2000/svg">
<g id="Icon" clip-path="url(#clip0_2951_12101)">
<path id="Vector" d="M1.33302 6.33182C1.33303 5.59013 1.55803 4.86589 1.97829 4.25476C2.39855 3.64362 2.9943 3.17434 3.68687 2.9089C4.37943 2.64345 5.13622 2.59433 5.85729 2.76803C6.57835 2.94172 7.22977 3.33005 7.7255 3.88173C7.76042 3.91907 7.80263 3.94883 7.84953 3.96918C7.89642 3.98953 7.94699 4.00003 7.99811 4.00003C8.04922 4.00003 8.0998 3.98953 8.14669 3.96918C8.19358 3.94883 8.23579 3.91907 8.27071 3.88173C8.76489 3.32647 9.41645 2.93487 10.1387 2.75907C10.8609 2.58327 11.6196 2.63159 12.3137 2.89762C13.0078 3.16365 13.6044 3.63476 14.0241 4.24825C14.4438 4.86174 14.6667 5.5885 14.6632 6.33182C14.6632 7.85813 13.6634 8.99786 12.6637 9.99762L9.0032 13.5388C8.87901 13.6814 8.72589 13.796 8.55401 13.8749C8.38213 13.9538 8.19542 13.9952 8.0063 13.9964C7.81717 13.9976 7.62996 13.9586 7.45709 13.8819C7.28423 13.8051 7.12966 13.6925 7.00368 13.5514L3.33254 9.99762C2.33278 8.99786 1.33302 7.86479 1.33302 6.33182Z" stroke="currentColor" stroke-width="1.33302" stroke-linecap="round" stroke-linejoin="round"/>
</g>
<defs>
<clipPath id="clip0_2951_12101">
<rect width="15.9962" height="15.9962" fill="white"/>
</clipPath>
</defs>
</svg>
