<svg preserveAspectRatio="none" width="100%" height="100%" overflow="visible" style="display: block;" viewBox="0 0 15.9962 15.9962" fill="none" xmlns="http://www.w3.org/2000/svg">
<g id="Icon" clip-path="url(#clip0_2951_12094)">
<path id="Vector" d="M7.99811 3.33255C7.99811 2.93708 8.11538 2.55049 8.33509 2.22167C8.5548 1.89285 8.86708 1.63656 9.23245 1.48522C9.59781 1.33388 9.99985 1.29429 10.3877 1.37144C10.7756 1.44859 11.1319 1.63903 11.4115 1.91867C11.6912 2.19831 11.8816 2.55459 11.9587 2.94246C12.0359 3.33033 11.9963 3.73237 11.845 4.09773C11.6936 4.4631 11.4373 4.77538 11.1085 4.99509C10.7797 5.2148 10.3931 5.33207 9.99763 5.33207M7.99811 3.33255C7.99811 2.93708 7.88084 2.55049 7.66113 2.22167C7.44141 1.89285 7.12913 1.63656 6.76377 1.48522C6.3984 1.33388 5.99636 1.29429 5.60849 1.37144C5.22062 1.44859 4.86434 1.63903 4.5847 1.91867C4.30506 2.19831 4.11463 2.55459 4.03747 2.94246C3.96032 3.33033 3.99992 3.73237 4.15126 4.09773C4.3026 4.4631 4.55888 4.77538 4.8877 4.99509C5.21652 5.2148 5.60311 5.33207 5.99858 5.33207M7.99811 3.33255V3.99905M9.99763 5.33207C10.3931 5.33207 10.7797 5.44934 11.1085 5.66905C11.4373 5.88876 11.6936 6.20105 11.845 6.56641C11.9963 6.93178 12.0359 7.33382 11.9587 7.72169C11.8816 8.10956 11.6912 8.46584 11.4115 8.74548C11.1319 9.02512 10.7756 9.21555 10.3877 9.29271C9.99985 9.36986 9.59781 9.33026 9.23245 9.17892C8.86708 9.02758 8.5548 8.7713 8.33509 8.44248C8.11538 8.11366 7.99811 7.72707 7.99811 7.3316M9.99763 5.33207H9.33112M5.99858 5.33207C5.60311 5.33207 5.21652 5.44934 4.8877 5.66905C4.55888 5.88876 4.3026 6.20105 4.15126 6.56641C3.99992 6.93178 3.96032 7.33382 4.03747 7.72169C4.11463 8.10956 4.30506 8.46584 4.5847 8.74548C4.86434 9.02512 5.22062 9.21555 5.60849 9.29271C5.99636 9.36986 6.3984 9.33026 6.76377 9.17892C7.12913 9.02758 7.44141 8.7713 7.66113 8.44248C7.88084 8.11366 7.99811 7.72707 7.99811 7.3316M5.99858 5.33207H6.66509M7.99811 7.3316V6.66509" stroke="currentColor" stroke-width="1.33302" stroke-linecap="round" stroke-linejoin="round"/>
<path id="Vector_2" d="M7.99811 6.66509C8.73431 6.66509 9.33113 6.06828 9.33113 5.33207C9.33113 4.59587 8.73431 3.99905 7.99811 3.99905C7.2619 3.99905 6.66509 4.59587 6.66509 5.33207C6.66509 6.06828 7.2619 6.66509 7.99811 6.66509Z" stroke="currentColor" stroke-width="1.33302" stroke-linecap="round" stroke-linejoin="round"/>
<path id="Vector_3" d="M7.99811 6.66509V14.6632" stroke="currentColor" stroke-width="1.33302" stroke-linecap="round" stroke-linejoin="round"/>
<path id="Vector_4" d="M7.99811 14.6632C10.7974 14.6632 12.6637 13.5521 12.6637 11.3307C9.86433 11.3307 7.99811 12.4417 7.99811 14.6632Z" stroke="currentColor" stroke-width="1.33302" stroke-linecap="round" stroke-linejoin="round"/>
<path id="Vector_5" d="M7.99811 14.6632C5.19877 14.6632 3.33254 13.5521 3.33254 11.3307C6.13188 11.3307 7.99811 12.4417 7.99811 14.6632Z" stroke="currentColor" stroke-width="1.33302" stroke-linecap="round" stroke-linejoin="round"/>
</g>
<defs>
<clipPath id="clip0_2951_12094">
<rect width="15.9962" height="15.9962" fill="white"/>
</clipPath>
</defs>
</svg>
