<svg width="24" height="24" viewBox="0 0 24 24" fill="none" xmlns="http://www.w3.org/2000/svg">
<path d="M9.75 13.25H17.75M9.75 17.25H17.75M6.75 13.75H4.75C3.64543 13.75 2.75 14.6454 2.75 15.75V17.75C2.75 19.4069 4.09315 20.75 5.75 20.75H9.75M6.75 19.75V5.75C6.75 4.09315 8.09315 2.75 9.75 2.75H17.75C19.4069 2.75 20.75 4.09315 20.75 5.75V17.75C20.75 19.4069 19.4069 20.75 17.75 20.75H7.75C7.19772 20.75 6.75 20.3023 6.75 19.75ZM10.75 6.25H12.75C13.3023 6.25 13.75 6.69772 13.75 7.25V8.25C13.75 8.80228 13.3023 9.25 12.75 9.25H10.75C10.1977 9.25 9.75 8.80228 9.75 8.25V7.25C9.75 6.69772 10.1977 6.25 10.75 6.25Z" stroke="white" stroke-width="1.5" stroke-linecap="round" stroke-linejoin="round"/>
</svg>
