<svg preserveAspectRatio="none" width="100%" height="100%" overflow="visible" style="display: block;" viewBox="0 0 15.9962 15.9962" fill="none" xmlns="http://www.w3.org/2000/svg">
<g id="Icon" clip-path="url(#clip0_2951_12086)">
<path id="Vector" d="M7.68152 1.52965C7.71072 1.47064 7.75585 1.42096 7.81179 1.38623C7.86773 1.3515 7.93226 1.3331 7.99811 1.3331C8.06395 1.3331 8.12849 1.3515 8.18443 1.38623C8.24037 1.42096 8.28549 1.47064 8.3147 1.52965L9.85433 4.64824C9.95576 4.85351 10.1055 5.03109 10.2906 5.16576C10.4758 5.30042 10.6909 5.38814 10.9174 5.42139L14.3606 5.92528C14.4258 5.93473 14.4871 5.96225 14.5376 6.00472C14.588 6.0472 14.6255 6.10293 14.6459 6.16562C14.6663 6.22831 14.6687 6.29546 14.6529 6.35946C14.6371 6.42347 14.6038 6.48178 14.5566 6.5278L12.0665 8.95256C11.9023 9.11259 11.7794 9.31013 11.7085 9.52817C11.6375 9.74622 11.6206 9.97824 11.6592 10.2043L12.2471 13.6301C12.2586 13.6953 12.2516 13.7625 12.2268 13.8239C12.202 13.8853 12.1604 13.9385 12.1068 13.9774C12.0533 14.0163 11.9898 14.0394 11.9238 14.044C11.8577 14.0485 11.7917 14.0345 11.7332 14.0034L8.65529 12.3851C8.45248 12.2786 8.22684 12.223 7.99777 12.223C7.76871 12.223 7.54307 12.2786 7.34026 12.3851L4.26299 14.0034C4.20456 14.0343 4.13862 14.0482 4.07267 14.0435C4.00672 14.0388 3.94341 14.0157 3.88994 13.9768C3.83647 13.938 3.79499 13.8848 3.77021 13.8236C3.74543 13.7623 3.73835 13.6952 3.74978 13.6301L4.33697 10.2049C4.37576 9.9788 4.35896 9.74664 4.28801 9.52845C4.21706 9.31027 4.0941 9.11262 3.92974 8.95256L1.43966 6.52847C1.39207 6.4825 1.35834 6.42409 1.34232 6.35989C1.32631 6.29569 1.32864 6.22828 1.34907 6.16535C1.36949 6.10241 1.40718 6.04647 1.45784 6.00391C1.5085 5.96135 1.5701 5.93387 1.63561 5.92461L5.07813 5.42139C5.30492 5.3884 5.52029 5.30079 5.70571 5.16611C5.89113 5.03143 6.04104 4.85371 6.14255 4.64824L7.68152 1.52965Z" stroke="currentColor" stroke-width="1.33302" stroke-linecap="round" stroke-linejoin="round"/>
</g>
<defs>
<clipPath id="clip0_2951_12086">
<rect width="15.9962" height="15.9962" fill="white"/>
</clipPath>
</defs>
</svg>
