<svg width="68" height="53" viewBox="0 0 68 53" fill="none" xmlns="http://www.w3.org/2000/svg">
<g opacity="0.1">
<path d="M62.2993 5.34665L8.49816 5.34665C5.62687 5.34665 3.29923 7.67413 3.29923 10.5452V47.533C3.29923 50.4041 5.62687 52.7316 8.49816 52.7316L62.2993 52.7316C65.1706 52.7316 67.4983 50.4041 67.4983 47.533V10.5452C67.4983 7.67413 65.1706 5.34665 62.2993 5.34665Z" fill="#9C9CA6" fill-opacity="0.2"/>
<g>
<path d="M59.6488 24.6385L5.84766 24.6385C2.97636 24.6385 0.648723 26.966 0.648723 29.8371V43.4313C0.648723 46.3024 2.97636 48.6299 5.84766 48.6299L59.6488 48.6299C62.5201 48.6299 64.8477 46.3024 64.8477 43.4313V29.8371C64.8477 26.966 62.5201 24.6385 59.6488 24.6385Z" fill="#E1D3FF"/>
<path d="M59.65 49.2837L5.8488 49.2837C2.62286 49.2837 0 46.661 0 43.4353V29.8411C0 26.6153 2.62286 23.9927 5.8488 23.9927L59.65 23.9927C62.8759 23.9927 65.4988 26.6153 65.4988 29.8411V43.4353C65.4988 46.661 62.8759 49.2837 59.65 49.2837ZM5.8488 25.2923C3.34031 25.2923 1.29973 27.3327 1.29973 29.8411V43.4353C1.29973 45.9436 3.34031 47.9841 5.8488 47.9841L59.65 47.9841C62.1584 47.9841 64.199 45.9436 64.199 43.4353V29.8411C64.199 27.3327 62.1584 25.2923 59.65 25.2923L5.8488 25.2923Z" fill="#A17BF4"/>
</g>
<g>
<path d="M59.6499 0.650718L37.947 0.650718C35.0746 0.650718 32.7481 2.97708 32.7481 5.84929V48.6335C32.7481 44.9009 35.7738 41.8754 39.5067 41.8754L59.6499 41.8754C62.5224 41.8754 64.8489 39.549 64.8489 36.6768V5.84929C64.8489 2.97708 62.5224 0.650718 59.6499 0.650718Z" fill="white"/>
<path d="M33.4005 48.6326H32.1007V5.84839C32.1007 2.62268 34.7236 0 37.9495 0L59.6525 0C62.8784 0 65.5013 2.62268 65.5013 5.84839V36.6759C65.5013 39.9016 62.8784 42.5243 59.6525 42.5243L39.5092 42.5243C36.1403 42.5243 33.4005 45.2639 33.4005 48.6326ZM37.9495 1.29964C35.4411 1.29964 33.4005 3.34008 33.4005 5.84839V44.4452C34.7366 42.5009 36.9773 41.2246 39.5092 41.2246L59.6525 41.2246C62.161 41.2246 64.2016 39.1842 64.2016 36.6759V5.84839C64.2016 3.34008 62.161 1.29964 59.6525 1.29964L37.9495 1.29964Z" fill="#A17BF4"/>
</g>
<g>
<path d="M5.85009 0.654996L27.553 0.654996C30.4254 0.654996 32.752 2.98136 32.752 5.85356V41.8796V48.6378C32.752 44.9052 29.7262 41.8796 25.9934 41.8796L5.85009 41.8796C2.97768 41.8796 0.651159 39.5533 0.651159 36.6811V5.85356C0.651159 2.98136 2.97768 0.654996 5.85009 0.654996Z" fill="white"/>
<path d="M33.4007 48.6335H32.1009C32.1009 45.2648 29.3611 42.5252 25.9922 42.5252L5.84891 42.5252C2.62297 42.5252 0.000107031 39.9025 0.000107031 36.6768V5.84929C0.000107031 2.62358 2.62297 0.000899534 5.84891 0.000899534L27.5519 0.000899534C29.1141 0.000899534 30.5828 0.609132 31.6876 1.71383C32.7924 2.81852 33.4007 4.28712 33.4007 5.84929V48.6335ZM5.84891 1.30054C3.34042 1.30054 1.29984 3.34098 1.29984 5.84929V36.6768C1.29984 39.1851 3.34042 41.2255 5.84891 41.2255L25.9922 41.2255C28.5241 41.2255 30.7648 42.5018 32.1009 44.4461V5.84929C32.1009 4.63542 31.6278 3.49174 30.7674 2.63397C29.907 1.77621 28.7658 1.30054 27.5519 1.30054L5.84891 1.30054Z" fill="#A17BF4"/>
</g>
<path d="M58.3013 6.95827L39.2992 6.95827C38.5756 6.95827 37.9891 7.5448 37.9891 8.26831C37.9891 8.99183 38.5756 9.57835 39.2992 9.57835L58.3013 9.57835C59.0249 9.57835 59.6115 8.99183 59.6115 8.26831C59.6115 7.5448 59.0249 6.95827 58.3013 6.95827Z" fill="#9C9CA6" fill-opacity="0.2"/>
<path d="M42.5706 25.3951L41.9519 23.3365C41.8297 22.9258 41.25 22.9258 41.1253 23.3365L40.5092 25.3899C40.4208 25.6888 40.0517 25.798 39.8151 25.5953C39.628 25.4341 39.511 25.1976 39.511 24.9324V1.95217C39.511 1.23217 40.0959 0.647329 40.8159 0.647329L42.2638 0.647329C42.9839 0.647329 43.5687 1.23217 43.5687 1.95217V24.9324C43.5687 25.2236 43.4284 25.4783 43.21 25.6394C42.9813 25.8084 42.6511 25.668 42.5706 25.3977V25.3951Z" fill="#A17BF4"/>
</g>
</svg>