<svg width="24" height="24" viewBox="0 0 24 24" fill="none" xmlns="http://www.w3.org/2000/svg">
<!-- File body -->
<path d="M15.1429 3.8037L14.6412 4.36117L15.1429 3.8037ZM19.1017 7.3666L18.6 7.92407L19.1017 7.3666ZM21.404 9.90415L20.7189 10.2093L21.404 9.90415ZM2.92157 20.5785L3.4519 20.0481L2.92157 20.5785ZM20.5784 20.5785L20.0481 20.0481L20.5784 20.5785ZM13.75 21.7501V21.0001H9.75V21.7501V22.5001H13.75V21.7501ZM1.75 13.7501H2.5V9.75005H1.75H1V13.7501H1.75ZM21.75 13.3129H21V13.7501H21.75H22.5V13.3129H21.75ZM15.1429 3.8037L14.6412 4.36117L18.6 7.92407L19.1017 7.3666L19.6034 6.80912L15.6447 3.24623L15.1429 3.8037ZM21.75 13.3129H22.5C22.5 11.6246 22.5151 10.5556 22.0891 9.59902L21.404 9.90415L20.7189 10.2093C20.9849 10.8065 21 11.4921 21 13.3129H21.75ZM19.1017 7.3666L18.6 7.92407C19.9534 9.14215 20.4529 9.61204 20.7189 10.2093L21.404 9.90415L22.0891 9.59902C21.6631 8.64246 20.8584 7.93858 19.6034 6.80912L19.1017 7.3666ZM9.77979 1.75005V2.50005C11.3616 2.50005 11.9585 2.51163 12.4905 2.71578L12.7592 2.01557L13.0279 1.31535C12.1761 0.988472 11.248 1.00005 9.77979 1.00005V1.75005ZM15.1429 3.8037L15.6447 3.24623C14.5587 2.26883 13.8797 1.6422 13.0279 1.31535L12.7592 2.01557L12.4905 2.71578C13.0227 2.91998 13.4715 3.30842 14.6412 4.36117L15.1429 3.8037ZM9.75 21.7501V21.0001C7.84318 21.0001 6.48851 20.9985 5.46085 20.8603C4.45476 20.725 3.87511 20.4714 3.4519 20.0481L2.92157 20.5785L2.39124 21.1088C3.13961 21.8572 4.08856 22.1893 5.26098 22.3469C6.41182 22.5016 7.88558 22.5001 9.75 22.5001V21.7501ZM1.75 13.7501H1C1 15.6145 0.998408 17.0882 1.15314 18.2391C1.31076 19.4115 1.64288 20.3604 2.39124 21.1088L2.92157 20.5785L3.4519 20.0481C3.02869 19.6249 2.77502 19.0453 2.63976 18.0392C2.50159 17.0115 2.5 15.6569 2.5 13.7501H1.75ZM13.75 21.7501V22.5001C15.6144 22.5001 17.0882 22.5016 18.239 22.3469C19.4114 22.1893 20.3604 21.8572 21.1088 21.1088L20.5784 20.5785L20.0481 20.0481C19.6249 20.4714 19.0452 20.725 18.0392 20.8603C17.0115 20.9985 15.6568 21.0001 13.75 21.0001V21.7501ZM21.75 13.7501H21C21 15.6569 20.9984 17.0115 20.8602 18.0392C20.725 19.0453 20.4713 19.6249 20.0481 20.0481L20.5784 20.5785L21.1088 21.1088C21.8571 20.3604 22.1892 19.4115 22.3469 18.2391C22.5016 17.0882 22.5 15.6145 22.5 13.7501H21.75ZM1.75 9.75005H2.5C2.5 7.84323 2.50159 6.48856 2.63976 5.4609C2.77502 4.45481 3.02869 3.87516 3.4519 3.45195L2.92157 2.92162L2.39124 2.39129C1.64288 3.13966 1.31076 4.08861 1.15314 5.26103C0.998408 6.41187 1 7.88563 1 9.75005H1.75ZM9.77979 1.75005V1.00005C7.90538 1.00005 6.42442 0.998472 5.26887 1.15313C4.09232 1.31059 3.14019 1.64235 2.39124 2.39129L2.92157 2.92162L3.4519 3.45195C3.87453 3.02933 4.45596 2.7753 5.46785 2.63987C6.50075 2.50163 7.86311 2.50005 9.77979 2.50005V1.75005Z" fill="currentColor"/>
<!-- Folded corner -->
<path d="M13.75 2V4.5C13.75 6.85702 13.75 8.03553 14.4822 8.76777C15.2145 9.5 16.393 9.5 18.75 9.5H22.75" stroke="currentColor" stroke-width="1.5"/>
</svg>
