<svg width="24" height="24" viewBox="0 0 24 24" fill="none" xmlns="http://www.w3.org/2000/svg">
<path d="M15 10C15 11.6569 13.6569 13 12 13C10.3431 13 9 11.6569 9 10C9 8.34315 10.3431 7 12 7C13.6569 7 15 8.34315 15 10Z" stroke="white" stroke-width="1.5" stroke-linecap="round" stroke-linejoin="round"/>
<path d="M12 3C8.13401 3 5 6.13401 5 10C5 11.7135 5.61568 13.2832 6.63789 14.5L10.373 19.7244C11.1707 20.8401 12.8293 20.8401 13.627 19.7244L17.3621 14.5C18.3843 13.2832 19 11.7135 19 10C19 6.13401 15.866 3 12 3Z" stroke="white" stroke-width="1.5" stroke-linecap="round" stroke-linejoin="round"/>
</svg>
