<svg width="20" height="20" viewBox="0 0 20 20" fill="none" xmlns="http://www.w3.org/2000/svg">
<path d="M13.33 17.5V15.83C13.33 14.95 12.98 14.1 12.35 13.47C11.73 12.85 10.88 12.5 10 12.5H5C4.12 12.5 3.27 12.85 2.64 13.47C2.02 14.1 1.67 14.95 1.67 15.83V17.5" stroke="currentColor" stroke-width="1.67" stroke-linecap="round" stroke-linejoin="round"/>
<path d="M13.33 2.61C14.04 2.79 14.67 3.21 15.13 3.79C15.58 4.38 15.82 5.09 15.82 5.83C15.82 6.57 15.58 7.29 15.13 7.87C14.67 8.45 14.04 8.87 13.33 9.06" stroke="currentColor" stroke-width="1.67" stroke-linecap="round" stroke-linejoin="round"/>
<path d="M18.32 17.5V15.83C18.32 15.09 18.08 14.37 17.63 13.79C17.17 13.2 16.54 12.79 15.83 12.6" stroke="currentColor" stroke-width="1.67" stroke-linecap="round" stroke-linejoin="round"/>
<path d="M7.5 9.17C9.34 9.17 10.83 7.68 10.83 5.84C10.83 4 9.34 2.5 7.5 2.5C5.66 2.5 4.17 4 4.17 5.84C4.17 7.68 5.66 9.17 7.5 9.17Z" stroke="currentColor" stroke-width="1.67" stroke-linecap="round" stroke-linejoin="round"/>
</svg>
