<svg preserveAspectRatio="none" width="100%" height="100%" overflow="visible" style="display: block;" viewBox="0 0 23.9943 23.9943" fill="none" xmlns="http://www.w3.org/2000/svg">
<g id="Icon">
<path id="Vector" d="M15.9962 1.99953L13.6968 4.29898C13.1472 4.85964 12.8394 5.61341 12.8394 6.39849C12.8394 7.18356 13.1472 7.93733 13.6968 8.49799L15.4963 10.2976C16.057 10.8471 16.8108 11.1549 17.5958 11.1549C18.3809 11.1549 19.1347 10.8471 19.6953 10.2976L21.9948 7.99811" stroke="currentColor" stroke-width="1.99953" stroke-linecap="round" stroke-linejoin="round"/>
<path id="Vector_2" d="M14.9965 14.9964L3.29922 3.29921C2.90019 3.69017 2.58319 4.15682 2.36678 4.67183C2.15037 5.18685 2.0389 5.73986 2.0389 6.2985C2.0389 6.85713 2.15037 7.41015 2.36678 7.92516C2.58319 8.44017 2.90019 8.90683 3.29922 9.29779L10.5975 16.5961C11.2973 17.2959 12.597 17.2959 13.3968 16.5961L14.9965 14.9964ZM14.9965 14.9964L21.9948 21.9948" stroke="currentColor" stroke-width="1.99953" stroke-linecap="round" stroke-linejoin="round"/>
<path id="Vector_3" d="M2.0995 21.7948L8.49799 15.4963" stroke="currentColor" stroke-width="1.99953" stroke-linecap="round" stroke-linejoin="round"/>
<path id="Vector_4" d="M18.9955 4.99882L11.9972 11.9972" stroke="currentColor" stroke-width="1.99953" stroke-linecap="round" stroke-linejoin="round"/>
</g>
</svg>
