<svg preserveAspectRatio="none" width="100%" height="100%" overflow="visible" style="display: block;" viewBox="0 0 23.9943 23.9943" fill="none" xmlns="http://www.w3.org/2000/svg">
<g id="Icon">
<path id="Vector" d="M8.99787 17.9957V4.99882L20.995 2.99929V15.9962" stroke="currentColor" stroke-width="1.99953" stroke-linecap="round" stroke-linejoin="round"/>
<path id="Vector_2" d="M5.99858 20.995C7.65504 20.995 8.99787 19.6522 8.99787 17.9957C8.99787 16.3393 7.65504 14.9965 5.99858 14.9965C4.34212 14.9965 2.99929 16.3393 2.99929 17.9957C2.99929 19.6522 4.34212 20.995 5.99858 20.995Z" stroke="currentColor" stroke-width="1.99953" stroke-linecap="round" stroke-linejoin="round"/>
<path id="Vector_3" d="M17.9957 18.9955C19.6522 18.9955 20.995 17.6527 20.995 15.9962C20.995 14.3398 19.6522 12.9969 17.9957 12.9969C16.3393 12.9969 14.9965 14.3398 14.9965 15.9962C14.9965 17.6527 16.3393 18.9955 17.9957 18.9955Z" stroke="currentColor" stroke-width="1.99953" stroke-linecap="round" stroke-linejoin="round"/>
</g>
</svg>
