<svg width="24" height="24" viewBox="0 0 24 24" fill="none" xmlns="http://www.w3.org/2000/svg">
<path d="M8 6L8.54415 4.36754C8.81638 3.55086 9.58066 3 10.4415 3H13.5585C14.4193 3 15.1836 3.55086 15.4558 4.36754L16 6M8 6H5.61803C4.87465 6 4.39116 6.78231 4.72361 7.44721L5.21263 8.42527C5.40206 8.80413 5.50912 9.2188 5.52675 9.64201L5.8802 18.1249C5.94716 19.7318 7.26933 21 8.8776 21H15.1224C16.7307 21 18.0528 19.7318 18.1198 18.1249L18.4732 9.64202C18.4909 9.21881 18.5979 8.80413 18.7874 8.42527L19.2764 7.44721C19.6088 6.78231 19.1253 6 18.382 6H16M8 6H16M14.4399 16.5L14.6899 10.5M9.56006 16.5L9.31006 10.5" stroke="#DB4F47" stroke-width="1.5" stroke-linecap="round" stroke-linejoin="round"/>
</svg>