<svg preserveAspectRatio="none" width="100%" height="100%" overflow="visible" style="display: block;" viewBox="0 0 33.592 33.592" fill="none" xmlns="http://www.w3.org/2000/svg">
<g id="Icon">
<path id="Vector" d="M27.9934 11.1992H5.59867C4.82566 11.1992 4.19901 11.8259 4.19901 12.5989V15.3982C4.19901 16.1712 4.82566 16.7979 5.59867 16.7979H27.9934C28.7664 16.7979 29.393 16.1712 29.393 15.3982V12.5989C29.393 11.8259 28.7664 11.1992 27.9934 11.1992Z" stroke="white" stroke-width="2.79934" stroke-linecap="round" stroke-linejoin="round"/>
<path id="Vector_2" d="M16.796 11.1992V29.3949" stroke="white" stroke-width="2.79934" stroke-linecap="round" stroke-linejoin="round"/>
<path id="Vector_3" d="M26.5937 16.7969V26.5946C26.5937 27.337 26.2988 28.049 25.7738 28.574C25.2488 29.099 24.5368 29.3939 23.7944 29.3939H9.79769C9.05526 29.3939 8.34324 29.099 7.81826 28.574C7.29328 28.049 6.99835 27.337 6.99835 26.5946V16.7969" stroke="white" stroke-width="2.79934" stroke-linecap="round" stroke-linejoin="round"/>
<path id="Vector_4" d="M10.4975 11.1982C9.56949 11.1982 8.67946 10.8295 8.02324 10.1733C7.36701 9.51707 6.99835 8.62704 6.99835 7.699C6.99835 6.77096 7.36701 5.88094 8.02324 5.22471C8.67946 4.56849 9.56949 4.19983 10.4975 4.19983C11.8478 4.17631 13.1709 4.83144 14.2945 6.07981C15.418 7.32818 16.2897 9.11183 16.796 11.1982C17.3023 9.11183 18.1741 7.32818 19.2976 6.07981C20.4211 4.83144 21.7443 4.17631 23.0945 4.19983C24.0226 4.19983 24.9126 4.56849 25.5688 5.22471C26.2251 5.88094 26.5937 6.77096 26.5937 7.699C26.5937 8.62704 26.2251 9.51707 25.5688 10.1733C24.9126 10.8295 24.0226 11.1982 23.0945 11.1982" stroke="white" stroke-width="2.79934" stroke-linecap="round" stroke-linejoin="round"/>
</g>
</svg>
