<svg preserveAspectRatio="none" width="100%" height="100%" overflow="visible" style="display: block;" viewBox="0 0 15.9962 15.9962" fill="none" xmlns="http://www.w3.org/2000/svg">
<g id="Icon">
<path id="Vector" d="M5.99858 11.9972V3.33254L13.9967 1.99953V10.6641" stroke="currentColor" stroke-width="1.33302" stroke-linecap="round" stroke-linejoin="round"/>
<path id="Vector_2" d="M3.99905 13.9967C5.10336 13.9967 5.99858 13.1015 5.99858 11.9972C5.99858 10.8929 5.10336 9.99763 3.99905 9.99763C2.89475 9.99763 1.99953 10.8929 1.99953 11.9972C1.99953 13.1015 2.89475 13.9967 3.99905 13.9967Z" stroke="currentColor" stroke-width="1.33302" stroke-linecap="round" stroke-linejoin="round"/>
<path id="Vector_3" d="M11.9972 12.6637C13.1015 12.6637 13.9967 11.7685 13.9967 10.6641C13.9967 9.55983 13.1015 8.66462 11.9972 8.66462C10.8929 8.66462 9.99763 9.55983 9.99763 10.6641C9.99763 11.7685 10.8929 12.6637 11.9972 12.6637Z" stroke="currentColor" stroke-width="1.33302" stroke-linecap="round" stroke-linejoin="round"/>
</g>
</svg>
