<svg width="20" height="20" viewBox="0 0 20 20" fill="none" xmlns="http://www.w3.org/2000/svg">
<path d="M9.17645 2.34384C9.21214 2.15277 9.31353 1.98019 9.46306 1.85601C9.61259 1.73182 9.80085 1.66384 9.99523 1.66384C10.1896 1.66384 10.3779 1.73182 10.5274 1.85601C10.6769 1.98019 10.7783 2.15277 10.814 2.34384L11.6894 6.9733C11.7516 7.30243 11.9115 7.60518 12.1484 7.84203C12.3852 8.07887 12.688 8.23882 13.0171 8.301L17.6466 9.17641C17.8376 9.2121 18.0102 9.31349 18.1344 9.46302C18.2586 9.61256 18.3266 9.80081 18.3266 9.99519C18.3266 10.1896 18.2586 10.3778 18.1344 10.5274C18.0102 10.6769 17.8376 10.7783 17.6466 10.814L13.0171 11.6894C12.688 11.7516 12.3852 11.9115 12.1484 12.1484C11.9115 12.3852 11.7516 12.6879 11.6894 13.0171L10.814 17.6465C10.7783 17.8376 10.6769 18.0102 10.5274 18.1344C10.3779 18.2586 10.1896 18.3265 9.99523 18.3265C9.80085 18.3265 9.61259 18.2586 9.46306 18.1344C9.31353 18.0102 9.21214 17.8376 9.17645 17.6465L8.30104 13.0171C8.23886 12.6879 8.07891 12.3852 7.84206 12.1484C7.60522 11.9115 7.30247 11.7516 6.97334 11.6894L2.34388 10.814C2.15281 10.7783 1.98023 10.6769 1.85604 10.5274C1.73186 10.3778 1.66388 10.1896 1.66388 9.99519C1.66388 9.80081 1.73186 9.61256 1.85604 9.46302C1.98023 9.31349 2.15281 9.2121 2.34388 9.17641L6.97334 8.301C7.30247 8.23882 7.60522 8.07887 7.84206 7.84203C8.07891 7.60518 8.23886 7.30243 8.30104 6.9733L9.17645 2.34384Z" stroke="#8251EB" stroke-width="1.66587" stroke-linecap="round" stroke-linejoin="round"/>
<path d="M16.6587 1.66587V4.99761" stroke="#8251EB" stroke-width="1.66587" stroke-linecap="round" stroke-linejoin="round"/>
<path d="M18.3246 3.33174H14.9928" stroke="#8251EB" stroke-width="1.66587" stroke-linecap="round" stroke-linejoin="round"/>
<path d="M3.33174 18.3246C4.25178 18.3246 4.99761 17.5787 4.99761 16.6587C4.99761 15.7387 4.25178 14.9928 3.33174 14.9928C2.41171 14.9928 1.66587 15.7387 1.66587 16.6587C1.66587 17.5787 2.41171 18.3246 3.33174 18.3246Z" stroke="#8251EB" stroke-width="1.66587" stroke-linecap="round" stroke-linejoin="round"/>
</svg>
