<svg width="24" height="24" viewBox="0 0 24 24" fill="none" xmlns="http://www.w3.org/2000/svg">
<path d="M7.13422 6.75L7.67838 5.11754C7.9506 4.30086 8.71488 3.75 9.57574 3.75H12.6927C13.5536 3.75 14.3178 4.30086 14.5901 5.11754L15.1342 6.75M7.13422 6.75H4.75226C4.00888 6.75 3.52538 7.53231 3.85783 8.19721L4.34686 9.17527C4.53629 9.55413 4.64334 9.9688 4.66097 10.392L5.01443 18.8749C5.08138 20.4818 6.40355 21.75 8.01183 21.75H14.2566C15.8649 21.75 17.1871 20.4818 17.254 18.8749L17.6075 10.392C17.6251 9.96881 17.7322 9.55413 17.9216 9.17527L18.4106 8.19721C18.7431 7.53231 18.2596 6.75 17.5162 6.75H15.1342M7.13422 6.75H15.1342M13.5742 17.25L13.8242 11.25M8.69428 17.25L8.44428 11.25" stroke="currentColor" stroke-width="1.5" stroke-linecap="round" stroke-linejoin="round"/>
</svg>
