<svg preserveAspectRatio="none" width="100%" height="100%" overflow="visible" style="display: block;" viewBox="0 0 23.9943 23.9943" fill="none" xmlns="http://www.w3.org/2000/svg">
<g id="Icon">
<path id="Vector" d="M18.9955 16.996H20.995C21.5949 16.996 21.9948 16.5961 21.9948 15.9962V12.9969C21.9948 12.0971 21.295 11.2973 20.4951 11.0974C18.6956 10.5975 15.9962 9.99763 15.9962 9.99763C15.9962 9.99763 14.6965 8.59797 13.7967 7.69818C13.2969 7.29827 12.697 6.99834 11.9972 6.99834H4.99882C4.39896 6.99834 3.89908 7.39825 3.59915 7.89813L2.19948 10.7974C2.06709 11.1836 1.99953 11.589 1.99953 11.9972V15.9962C1.99953 16.5961 2.39943 16.996 2.99929 16.996H4.99882" stroke="currentColor" stroke-width="1.99953" stroke-linecap="round" stroke-linejoin="round"/>
<path id="Vector_2" d="M6.99882 18.9965C8.10339 18.9965 8.99882 18.101 8.99882 16.9965C8.99882 15.8919 8.10339 14.9965 6.99882 14.9965C5.89425 14.9965 4.99882 15.8919 4.99882 16.9965C4.99882 18.101 5.89425 18.9965 6.99882 18.9965Z" stroke="currentColor" stroke-width="1.99953" stroke-linecap="round" stroke-linejoin="round"/>
<path id="Vector_3" d="M8.99787 16.996H14.9965" stroke="currentColor" stroke-width="1.99953" stroke-linecap="round" stroke-linejoin="round"/>
<path id="Vector_4" d="M16.9965 18.9965C18.101 18.9965 18.9965 18.101 18.9965 16.9965C18.9965 15.8919 18.101 14.9965 16.9965 14.9965C15.8919 14.9965 14.9965 15.8919 14.9965 16.9965C14.9965 18.101 15.8919 18.9965 16.9965 18.9965Z" stroke="currentColor" stroke-width="1.99953" stroke-linecap="round" stroke-linejoin="round"/>
</g>
</svg>
