<svg preserveAspectRatio="none" width="100%" height="100%" overflow="visible" style="display: block;" viewBox="0 0 23.9943 23.9943" fill="none" xmlns="http://www.w3.org/2000/svg">
<g id="Icon">
<path id="Vector" d="M13.9937 3.99905C14.3544 3.99905 14.7084 4.09662 15.0182 4.28142C15.3279 4.46623 15.5819 4.73139 15.7533 5.04881L16.2392 5.94859C16.4105 6.26601 16.6645 6.53117 16.9743 6.71597C17.284 6.90078 17.638 6.99835 17.9987 6.99834H19.9953C20.5256 6.99834 21.0342 7.20901 21.4091 7.58399C21.7841 7.95898 21.9948 8.46756 21.9948 8.99787V17.9957C21.9948 18.526 21.7841 19.0346 21.4091 19.4096C21.0342 19.7846 20.5256 19.9953 19.9953 19.9953H3.99905C3.46875 19.9953 2.96016 19.7846 2.58517 19.4096C2.21019 19.0346 1.99953 18.526 1.99953 17.9957V8.99787C1.99953 8.46756 2.21019 7.95898 2.58517 7.58399C2.96016 7.20901 3.46875 6.99834 3.99905 6.99834H5.99558C6.35592 6.99836 6.70956 6.90101 7.01912 6.71658C7.32868 6.53214 7.58265 6.26749 7.75416 5.95059L8.24305 5.04681C8.41457 4.72991 8.66854 4.46525 8.97809 4.28082C9.28765 4.09639 9.6413 3.99903 10.0016 3.99905H13.9937Z" stroke="currentColor" stroke-width="1.99953" stroke-linecap="round" stroke-linejoin="round"/>
<path id="Vector_2" d="M11.9972 15.9962C13.6536 15.9962 14.9965 14.6534 14.9965 12.9969C14.9965 11.3405 13.6536 9.99763 11.9972 9.99763C10.3407 9.99763 8.99787 11.3405 8.99787 12.9969C8.99787 14.6534 10.3407 15.9962 11.9972 15.9962Z" stroke="currentColor" stroke-width="1.99953" stroke-linecap="round" stroke-linejoin="round"/>
</g>
</svg>
