<svg preserveAspectRatio="none" width="100%" height="100%" overflow="visible" style="display: block;" viewBox="0 0 31.9924 31.9924" fill="none" xmlns="http://www.w3.org/2000/svg">
<g id="Icon">
<path id="Vector" d="M26.6603 27.9942V17.3301C26.6603 16.623 26.3795 15.9449 25.8795 15.4449C25.3795 14.9449 24.7014 14.6641 23.9943 14.6641H7.9981C7.29102 14.6641 6.6129 14.9449 6.11293 15.4449C5.61295 15.9449 5.33206 16.623 5.33206 17.3301V27.9942" stroke="white" stroke-width="2.66604" stroke-linecap="round" stroke-linejoin="round"/>
<path id="Vector_2" d="M5.33206 21.3291C5.33206 21.3291 5.99857 19.9961 7.9981 19.9961C9.99762 19.9961 11.3306 22.6621 13.3302 22.6621C15.3297 22.6621 16.6627 19.9961 18.6622 19.9961C20.6618 19.9961 21.9948 22.6621 23.9943 22.6621C25.9938 22.6621 26.6603 21.3291 26.6603 21.3291" stroke="white" stroke-width="2.66604" stroke-linecap="round" stroke-linejoin="round"/>
<path id="Vector_3" d="M2.66605 27.9922H29.3264" stroke="white" stroke-width="2.66604" stroke-linecap="round" stroke-linejoin="round"/>
<path id="Vector_4" d="M9.33113 10.6641V14.6632" stroke="white" stroke-width="2.66604" stroke-linecap="round" stroke-linejoin="round"/>
<path id="Vector_5" d="M15.9962 10.6641V14.6632" stroke="white" stroke-width="2.66604" stroke-linecap="round" stroke-linejoin="round"/>
<path id="Vector_6" d="M22.6613 10.6641V14.6632" stroke="white" stroke-width="2.66604" stroke-linecap="round" stroke-linejoin="round"/>
<path id="Vector_7" d="M9.33113 5.33207H9.34446" stroke="white" stroke-width="2.66604" stroke-linecap="round" stroke-linejoin="round"/>
<path id="Vector_8" d="M15.9962 5.33207H16.0095" stroke="white" stroke-width="2.66604" stroke-linecap="round" stroke-linejoin="round"/>
<path id="Vector_9" d="M22.6613 5.33207H22.6746" stroke="white" stroke-width="2.66604" stroke-linecap="round" stroke-linejoin="round"/>
</g>
</svg>
