<svg width="24" height="24" viewBox="0 0 24 24" fill="none" xmlns="http://www.w3.org/2000/svg">
<path d="M11.9999 5.00001C13.4321 5.00001 14.8056 5.50572 15.8183 6.4059C16.831 7.30607 17.3999 8.52697 17.3999 9.80001C17.3999 11.7691 17.845 13.2436 18.4222 14.3279C19.1596 15.7133 19.5283 16.406 19.5078 16.5643C19.4839 16.7489 19.4534 16.7997 19.3016 16.9075C19.1716 17 18.5244 17 17.2301 17H6.76969C5.47541 17 4.82827 17 4.69818 16.9075C4.54644 16.7997 4.51595 16.7489 4.49202 16.5643C4.47152 16.406 4.84023 15.7133 5.57766 14.3279C6.15483 13.2436 6.59992 11.7691 6.59992 9.80001C6.59992 8.52697 7.16884 7.30607 8.18154 6.4059C9.19424 5.50572 10.5677 5.00001 11.9999 5.00001ZM11.9999 5.00001V3.00001M9.35392 20C10.0602 20.6234 10.9879 21.0016 12.0039 21.0016C13.02 21.0016 13.9477 20.6234 14.6539 20" stroke="#8251EB" stroke-width="1.5" stroke-linecap="round" stroke-linejoin="round"/>
</svg>