<svg preserveAspectRatio="none" width="165" height="163.276" viewBox="0 0 165 163.276" fill="none" xmlns="http://www.w3.org/2000/svg">
<g id="Group 1000002080">
<path id="Vector" d="M130.118 50.8762H35.55C30.503 50.8762 26.4117 54.9673 26.4117 60.0138V125.028C26.4117 130.075 30.503 134.166 35.55 134.166H130.118C135.165 134.166 139.256 130.075 139.256 125.028V60.0138C139.256 54.9673 135.165 50.8762 130.118 50.8762Z" fill="#9C9CA6" fill-opacity="0.2"/>
<g id="Group">
<path id="Vector_2" d="M125.462 84.7952H30.8943C25.8474 84.7952 21.756 88.8862 21.756 93.9328V117.828C21.756 122.874 25.8474 126.965 30.8943 126.965H125.462C130.509 126.965 134.6 122.874 134.6 117.828V93.9328C134.6 88.8862 130.509 84.7952 125.462 84.7952Z" fill="#E1D3FF"/>
<path id="Vector_3" d="M125.462 128.108H30.8943C25.224 128.108 20.6137 123.498 20.6137 117.828V93.9328C20.6137 88.2628 25.224 83.6529 30.8943 83.6529H125.462C131.132 83.6529 135.743 88.2628 135.743 93.9328V117.828C135.743 123.498 131.132 128.108 125.462 128.108ZM30.8943 85.9373C26.4851 85.9373 22.8983 89.5238 22.8983 93.9328V117.828C22.8983 122.237 26.4851 125.823 30.8943 125.823H125.462C129.871 125.823 133.458 122.237 133.458 117.828V93.9328C133.458 89.5238 129.871 85.9373 125.462 85.9373H30.8943Z" fill="#8251EB"/>
</g>
<g id="Group_2">
<path id="Vector_4" d="M125.462 42.6251H87.3142C82.2653 42.6251 78.1759 46.7142 78.1759 51.7628V126.966C78.1759 120.405 83.4944 115.087 90.0557 115.087H125.462C130.511 115.087 134.6 110.998 134.6 105.949V51.7628C134.6 46.7142 130.511 42.6251 125.462 42.6251Z" fill="white"/>
<path id="Vector_5" d="M79.3225 126.966H77.0379V51.7626C77.0379 46.0926 81.6482 41.4827 87.3185 41.4827H125.466C131.137 41.4827 135.747 46.0926 135.747 51.7626V105.949C135.747 111.619 131.137 116.229 125.466 116.229H90.06C84.1384 116.229 79.3225 121.044 79.3225 126.966ZM87.3185 43.7671C82.9093 43.7671 79.3225 47.3536 79.3225 51.7626V119.605C81.6711 116.188 85.6097 113.944 90.06 113.944H125.466C129.876 113.944 133.462 110.358 133.462 105.949V51.7626C133.462 47.3536 129.876 43.7671 125.466 43.7671H87.3185Z" fill="#8251EB"/>
</g>
<g id="Group_3">
<path id="Vector_6" d="M30.8943 42.6251H69.0422C74.0911 42.6251 78.1805 46.7142 78.1805 51.7628V115.087V126.966C78.1805 120.405 72.862 115.087 66.3007 115.087H30.8943C25.8454 115.087 21.756 110.998 21.756 105.949V51.7628C21.756 46.7142 25.8454 42.6251 30.8943 42.6251Z" fill="white"/>
<path id="Vector_7" d="M79.3228 126.966H77.0382C77.0382 121.045 72.2223 116.229 66.3007 116.229H30.8943C25.224 116.229 20.6137 111.619 20.6137 105.949V51.7627C20.6137 46.0928 25.224 41.4828 30.8943 41.4828H69.0422C71.7882 41.4828 74.3698 42.552 76.3117 44.4937C78.2536 46.4355 79.3228 49.0169 79.3228 51.7627V126.966ZM30.8943 43.7673C26.4851 43.7673 22.8983 47.3538 22.8983 51.7627V105.949C22.8983 110.358 26.4851 113.945 30.8943 113.945H66.3007C70.751 113.945 74.6896 116.188 77.0382 119.605V51.7627C77.0382 49.6291 76.2066 47.6188 74.6942 46.1111C73.1818 44.6034 71.176 43.7673 69.0422 43.7673H30.8943Z" fill="#8251EB"/>
</g>
<path id="Vector_8" d="M123.09 53.7089H89.6896C88.4178 53.7089 87.3868 54.7399 87.3868 56.0116C87.3868 57.2834 88.4178 58.3143 89.6896 58.3143H123.09C124.362 58.3143 125.393 57.2834 125.393 56.0116C125.393 54.7399 124.362 53.7089 123.09 53.7089Z" fill="#9C9CA6" fill-opacity="0.2"/>
<path id="Vector_9" d="M123.09 67.8903H89.6896C88.4178 67.8903 87.3868 68.9212 87.3868 70.193C87.3868 71.4647 88.4178 72.4956 89.6896 72.4956H123.09C124.362 72.4956 125.393 71.4647 125.393 70.193C125.393 68.9212 124.362 67.8903 123.09 67.8903Z" fill="#9C9CA6" fill-opacity="0.2"/>
<path id="Vector_10" d="M123.09 82.4929H89.6896C88.4178 82.4929 87.3868 83.5238 87.3868 84.7956C87.3868 86.0673 88.4178 87.0982 89.6896 87.0982H123.09C124.362 87.0982 125.393 86.0673 125.393 84.7956C125.393 83.5238 124.362 82.4929 123.09 82.4929Z" fill="#9C9CA6" fill-opacity="0.2"/>
<path id="Vector_11" d="M123.09 97.0901H89.6896C88.4178 97.0901 87.3868 98.121 87.3868 99.3928C87.3868 100.664 88.4178 101.695 89.6896 101.695H123.09C124.362 101.695 125.393 100.664 125.393 99.3928C125.393 98.121 124.362 97.0901 123.09 97.0901Z" fill="#9C9CA6" fill-opacity="0.2"/>
<path id="Vector_12" d="M66.6663 53.7089H33.2658C31.9939 53.7089 30.9629 54.7399 30.9629 56.0116C30.9629 57.2834 31.9939 58.3143 33.2658 58.3143H66.6663C67.9381 58.3143 68.9691 57.2834 68.9691 56.0116C68.9691 54.7399 67.9381 53.7089 66.6663 53.7089Z" fill="#9C9CA6" fill-opacity="0.2"/>
<path id="Vector_13" d="M66.6663 67.8903H33.2658C31.9939 67.8903 30.9629 68.9212 30.9629 70.193C30.9629 71.4647 31.9939 72.4956 33.2658 72.4956H66.6663C67.9381 72.4956 68.9691 71.4647 68.9691 70.193C68.9691 68.9212 67.9381 67.8903 66.6663 67.8903Z" fill="#9C9CA6" fill-opacity="0.2"/>
<path id="Vector_14" d="M66.6663 82.4929H33.2658C31.9939 82.4929 30.9629 83.5238 30.9629 84.7956C30.9629 86.0673 31.9939 87.0982 33.2658 87.0982H66.6663C67.9381 87.0982 68.9691 86.0673 68.9691 84.7956C68.9691 83.5238 67.9381 82.4929 66.6663 82.4929Z" fill="#9C9CA6" fill-opacity="0.2"/>
<path id="Vector_15" d="M66.6663 97.0901H33.2658C31.9939 97.0901 30.9629 98.121 30.9629 99.3928C30.9629 100.664 31.9939 101.695 33.2658 101.695H66.6663C67.9381 101.695 68.9691 100.664 68.9691 99.3928C68.9691 98.121 67.9381 97.0901 66.6663 97.0901Z" fill="#9C9CA6" fill-opacity="0.2"/>
<path id="Vector_16" d="M95.4425 86.1249L94.355 82.5063C94.1403 81.7845 93.1214 81.7845 92.9021 82.5063L91.8192 86.1157C91.6638 86.6411 91.015 86.833 90.5992 86.4767C90.2702 86.1934 90.0646 85.7776 90.0646 85.3116V44.9186C90.0646 43.653 91.0927 42.625 92.3583 42.625H94.9033C96.169 42.625 97.1971 43.653 97.1971 44.9186V85.3116C97.1971 85.8233 96.9503 86.2711 96.5665 86.5543C96.1644 86.8513 95.5842 86.6046 95.4425 86.1294V86.1249Z" fill="#8251EB"/>
<g id="Group_4">
<path id="Vector_17" d="M120.968 117.947L119.825 119.09C118.886 120.029 118.886 121.55 119.825 122.489L134.199 136.862C135.137 137.801 136.659 137.801 137.598 136.862L138.742 135.718C139.68 134.78 139.68 133.258 138.741 132.32L124.367 117.947C123.429 117.008 121.907 117.008 120.968 117.947Z" fill="#E1D3FF"/>
<path id="Vector_18" d="M135.898 138.758C134.687 138.758 133.472 138.296 132.549 137.373L119.316 124.142C117.47 122.296 117.47 119.29 119.316 117.444C121.162 115.598 124.169 115.598 126.015 117.444L139.247 130.675C141.093 132.521 141.093 135.528 139.247 137.373C138.324 138.296 137.109 138.758 135.898 138.758ZM122.665 119.107C122.231 119.107 121.802 119.272 121.473 119.601C120.815 120.259 120.815 121.328 121.473 121.986L134.705 135.217C135.363 135.875 136.432 135.875 137.09 135.217C137.748 134.559 137.748 133.49 137.09 132.832L123.858 119.601C123.529 119.272 123.1 119.107 122.665 119.107Z" fill="#A17BF4"/>
</g>
<g id="Group_5">
<path id="Vector_19" d="M112.54 125.969C121.784 125.969 129.277 118.476 129.277 109.233C129.277 99.9902 121.784 92.4974 112.54 92.4974C103.297 92.4974 95.8035 99.9902 95.8035 109.233C95.8035 118.476 103.297 125.969 112.54 125.969Z" fill="white"/>
<path id="Vector_20" d="M112.54 127.495C102.47 127.495 94.2774 119.303 94.2774 109.233C94.2774 99.1635 102.47 90.9716 112.54 90.9716C122.611 90.9716 130.803 99.1635 130.803 109.233C130.803 119.303 122.611 127.495 112.54 127.495ZM112.54 94.019C104.151 94.019 97.325 100.845 97.325 109.233C97.325 117.622 104.151 124.447 112.54 124.447C120.929 124.447 127.756 117.622 127.756 109.233C127.756 100.845 120.929 94.019 112.54 94.019Z" fill="#A17BF4"/>
</g>
<g id="Group 1000002070">
<path id="Vector_21" d="M17.2944 35.1125C16.6759 35.7689 15.645 35.8133 14.9692 35.2159L1.14305 21.3888C0.51391 20.7596 0.489036 19.7475 1.08652 19.0882C1.67632 18.4373 2.66968 18.355 3.35854 18.9L3.43745 18.9624L17.2599 32.7857C17.8985 33.4244 17.9138 34.4551 17.2944 35.1125Z" fill="#E1D3FF"/>
<path id="Vector_22" d="M3.50706 35.1467C2.86936 35.7844 1.84056 35.8008 1.18288 35.1837C0.524108 34.5655 0.480947 33.5302 1.07942 32.8535L14.9003 19.0318C15.5374 18.3946 16.5654 18.3783 17.2224 18.995C17.8536 19.5875 17.9269 20.5643 17.3912 21.2444L17.327 21.3259L3.50706 35.1467Z" fill="#E1D3FF"/>
</g>
<path id="Vector_23" d="M26.8335 10.3067C23.9669 10.3067 21.6356 7.99454 21.6356 5.15528C21.6356 2.31603 23.9669 0 26.8335 0C29.7001 0 32.0275 2.31218 32.0275 5.15528C32.0275 7.99838 29.6962 10.3067 26.8335 10.3067ZM26.8335 2.40836C25.309 2.40836 24.0678 3.63948 24.0678 5.15144C24.0678 6.6634 25.309 7.89451 26.8335 7.89451C28.358 7.89451 29.5992 6.6634 29.5992 5.15144C29.5992 3.63948 28.358 2.40836 26.8335 2.40836Z" fill="#A17BF4"/>
<path id="Vector_24" d="M40.6308 28.366C39.4086 28.366 38.4161 27.3735 38.4161 26.1513C38.4161 24.9292 39.4086 23.9366 40.6308 23.9366C41.8529 23.9366 42.8454 24.9292 42.8454 26.1513C42.8454 27.3735 41.8529 28.366 40.6308 28.366ZM40.6308 25.9295C40.5062 25.9295 40.4089 26.0307 40.4089 26.1552C40.4089 26.4043 40.8565 26.4043 40.8565 26.1552C40.8565 26.0307 40.7553 25.9295 40.6347 25.9295H40.6308Z" fill="#A17BF4"/>
<g id="Group 1000002071">
<path id="Vector_25" d="M163.888 144.652C163.27 145.309 162.239 145.353 161.563 144.756L147.737 130.929C147.108 130.3 147.083 129.288 147.68 128.628C148.27 127.977 149.263 127.895 149.952 128.44L150.031 128.502L163.854 142.326C164.492 142.964 164.508 143.995 163.888 144.652Z" fill="#E1D3FF"/>
<path id="Vector_26" d="M150.101 144.686C149.463 145.324 148.434 145.341 147.777 144.723C147.118 144.105 147.075 143.07 147.673 142.393L161.494 128.572C162.131 127.934 163.159 127.918 163.816 128.535C164.448 129.127 164.521 130.104 163.985 130.784L163.921 130.866L150.101 144.686Z" fill="#E1D3FF"/>
</g>
<g id="Group 1000002072">
<path id="Vector_27" d="M147.21 162.131C146.611 162.769 145.613 162.817 144.956 162.238L144.915 162.202L135.694 152.976C135.075 152.357 135.06 151.359 135.659 150.721C136.26 150.083 137.259 150.038 137.914 150.62L137.948 150.65L147.174 159.876C147.792 160.495 147.808 161.493 147.21 162.131Z" fill="#A17BF4"/>
<path id="Vector_28" d="M137.983 162.167C137.365 162.785 136.367 162.801 135.73 162.203C135.091 161.603 135.045 160.605 135.625 159.949L135.658 159.912L144.882 150.687C145.502 150.067 146.501 150.052 147.139 150.652C147.777 151.252 147.823 152.25 147.243 152.906L147.209 152.944L137.983 162.167Z" fill="#A17BF4"/>
</g>
</g>
</svg>
