<svg width="28" height="28" viewBox="0 0 28 28" fill="none" xmlns="http://www.w3.org/2000/svg">
<path d="M11.6659 25.665V18.0005" stroke="currentColor" stroke-width="2.33318" stroke-linecap="round" stroke-linejoin="round"/>
<path d="M13.9991 12.8325H14.0108" stroke="currentColor" stroke-width="2.33318" stroke-linecap="round" stroke-linejoin="round"/>
<path d="M13.9991 8.16614H14.0108" stroke="currentColor" stroke-width="2.33318" stroke-linecap="round" stroke-linejoin="round"/>
<path d="M16.3323 18.0005V25.665" stroke="currentColor" stroke-width="2.33318" stroke-linecap="round" stroke-linejoin="round"/>
<path d="M17.4989 18.6655C16.4892 17.9082 15.2612 17.4989 13.9991 17.4989C12.737 17.4989 11.509 17.9082 10.4993 18.6655" stroke="currentColor" stroke-width="2.33318" stroke-linecap="round" stroke-linejoin="round"/>
<path d="M18.6655 12.8325H18.6771" stroke="currentColor" stroke-width="2.33318" stroke-linecap="round" stroke-linejoin="round"/>
<path d="M18.6655 8.16614H18.6771" stroke="currentColor" stroke-width="2.33318" stroke-linecap="round" stroke-linejoin="round"/>
<path d="M9.33273 12.8325H9.3444" stroke="currentColor" stroke-width="2.33318" stroke-linecap="round" stroke-linejoin="round"/>
<path d="M9.33273 8.16614H9.3444" stroke="currentColor" stroke-width="2.33318" stroke-linecap="round" stroke-linejoin="round"/>
<path d="M20.9986 2.33318H6.99955C5.71097 2.33318 4.66637 3.37778 4.66637 4.66636V23.3318C4.66637 24.6204 5.71097 25.665 6.99955 25.665H20.9986C22.2872 25.665 23.3318 24.6204 23.3318 23.3318V4.66636C23.3318 3.37778 22.2872 2.33318 20.9986 2.33318Z" stroke="currentColor" stroke-width="2.33318" stroke-linecap="round" stroke-linejoin="round"/>
</svg>
