<svg preserveAspectRatio="none" width="100%" height="100%" overflow="visible" style="display: block;" viewBox="0 0 31.9924 31.9924" fill="none" xmlns="http://www.w3.org/2000/svg">
<g id="Icon">
<path id="Vector" d="M21.3283 26.6623V5.334C21.3283 4.62693 21.0474 3.94881 20.5474 3.44883C20.0475 2.94885 19.3693 2.66797 18.6623 2.66797H13.3302C12.6231 2.66797 11.945 2.94885 11.445 3.44883C10.945 3.94881 10.6642 4.62693 10.6642 5.334V26.6623" stroke="white" stroke-width="2.66604" stroke-linecap="round" stroke-linejoin="round"/>
<path id="Vector_2" d="M26.6604 8H5.33208C3.85967 8 2.66605 9.19362 2.66605 10.666V23.9962C2.66605 25.4686 3.85967 26.6623 5.33208 26.6623H26.6604C28.1328 26.6623 29.3264 25.4686 29.3264 23.9962V10.666C29.3264 9.19362 28.1328 8 26.6604 8Z" stroke="white" stroke-width="2.66604" stroke-linecap="round" stroke-linejoin="round"/>
</g>
</svg>
