<svg width="74" height="77" viewBox="0 0 74 77" fill="none" xmlns="http://www.w3.org/2000/svg">
<g opacity="0.1">
<path d="M67.4545 76.2281H12.8221C9.51724 76.2281 6.83915 73.4598 6.83915 70.0438L6.83915 24.4264C6.83915 21.0103 9.51724 18.2421 12.8221 18.2421L67.4545 18.2421C70.7594 18.2421 73.7464 22.5999 73.7464 26.016L73.4375 70.0408C73.4375 73.4568 70.7594 76.2251 67.4545 76.2251V76.2281Z" fill="#9C9CA6" fill-opacity="0.2"/>
<g>
<path d="M60.9031 12.7291L7.5782 12.7291C3.91283 12.7291 0.941458 15.7007 0.941458 19.3663L0.941458 64.0779C0.941458 67.7435 3.91283 70.7151 7.5782 70.7151H60.9031C64.5684 70.7151 67.5398 67.7435 67.5398 64.0779V19.3663C67.5398 15.7007 64.5684 12.7291 60.9031 12.7291Z" fill="white"/>
<path d="M61.3532 71.6548H7.12561C3.19695 71.6548 3.5477e-05 68.4577 3.5477e-05 64.5288L3.5477e-05 18.9144C3.5477e-05 14.9855 3.19395 11.7884 7.12561 11.7884L61.3532 11.7884C65.2818 11.7884 68.4788 14.9855 68.4788 18.9144V64.5288C68.4788 68.4577 65.2848 71.6548 61.3532 71.6548ZM7.12561 13.6689C4.2316 13.6689 1.8804 16.0232 1.8804 18.9144L1.8804 64.5288C1.8804 67.423 4.2346 69.7743 7.12561 69.7743H61.3532C64.2472 69.7743 66.5984 67.42 66.5984 64.5288V18.9144C66.5984 16.0202 64.2442 13.6689 61.3532 13.6689L7.12561 13.6689Z" fill="#8251EB"/>
</g>
<g>
<path d="M46.4424 8.57141H41.659C41.632 4.35458 38.3242 0.94152 34.2396 0.94152C30.1549 0.94152 26.8441 4.35458 26.8201 8.57141H22.0367C20.3963 8.57141 19.0647 9.94803 19.0647 11.6426L19.0647 17.8988C19.0647 19.5964 20.3933 20.97 22.0367 20.97L46.4454 20.97C48.0858 20.97 49.4174 19.5934 49.4174 17.8988V11.6426C49.4174 9.94503 48.0888 8.57141 46.4454 8.57141H46.4424ZM34.2396 11.3156C32.857 11.3156 31.7354 10.155 31.7354 8.72436C31.7354 7.29376 32.857 6.13608 34.2396 6.13608C35.6221 6.13608 36.7437 7.29676 36.7437 8.72436C36.7437 10.152 35.6221 11.3156 34.2396 11.3156Z" fill="#A17BF4"/>
<path d="M46.4421 21.9061L22.0334 21.9061C19.8771 21.9061 18.1257 20.1066 18.1257 17.8962L18.1257 11.6399C18.1257 9.42951 19.8801 7.63001 22.0334 7.63001L25.9321 7.63001C26.4119 3.3442 29.9627 0.000124021 34.2363 0.000124021C38.5098 0.000124021 42.0606 3.3472 42.5434 7.63001L46.4421 7.63001C48.5984 7.63001 50.3498 9.42951 50.3498 11.6399V17.8962C50.3498 20.1066 48.5954 21.9061 46.4421 21.9061ZM22.0364 9.50749C20.9178 9.50749 20.0061 10.4642 20.0061 11.6399L20.0061 17.8962C20.0061 19.0718 20.9178 20.0286 22.0364 20.0286L46.4451 20.0286C47.5637 20.0286 48.4754 19.0718 48.4754 17.8962V11.6399C48.4754 10.4642 47.5637 9.50749 46.4451 9.50749L40.7291 9.50749L40.7231 8.57475C40.6991 4.88277 37.7931 1.8776 34.2393 1.8776C30.6855 1.8776 27.7795 4.88277 27.7585 8.57475L27.7525 9.50749L22.0334 9.50749H22.0364ZM34.2393 12.2547C32.3409 12.2547 30.7964 10.6712 30.7964 8.72471C30.7964 6.77825 32.3409 5.19469 34.2393 5.19469C36.1376 5.19469 37.6851 6.77825 37.6851 8.72471C37.6851 10.6712 36.1406 12.2547 34.2393 12.2547ZM34.2393 7.07517C33.3786 7.07517 32.6738 7.81596 32.6738 8.72471C32.6738 9.63346 33.3756 10.3743 34.2393 10.3743C35.103 10.3743 35.8047 9.63346 35.8047 8.72471C35.8047 7.81596 35.103 7.07517 34.2393 7.07517Z" fill="#8251EB"/>
</g>
<path d="M15.5076 35.9945H11.5009C10.0494 35.9945 8.87084 34.8158 8.87084 33.3642V29.3543C8.87084 27.9027 10.0494 26.724 11.5009 26.724H15.5076C16.9591 26.724 18.1377 27.9027 18.1377 29.3543V33.3642C18.1377 34.8158 16.9591 35.9945 15.5076 35.9945Z" fill="#E1D3FF"/>
<path d="M58.3605 32.469H21.7609C21.1821 32.469 20.7143 31.9981 20.7143 31.4193C20.7143 30.7235 21.1851 30.2556 21.7609 30.2556L58.3605 30.2556C58.9393 30.2556 59.4101 30.7265 59.4101 31.3053C59.4101 32.0011 58.9393 32.469 58.3605 32.469Z" fill="#E1D3FF"/>
<path d="M15.5062 48.4586H11.4996C10.0481 48.4586 8.86948 47.2799 8.86948 45.8283V41.8184C8.86948 40.3668 10.0481 39.1882 11.4996 39.1882H15.5062C16.9577 39.1882 18.1363 40.3668 18.1363 41.8184V45.8283C18.1363 47.2799 16.9577 48.4586 15.5062 48.4586Z" fill="#E1D3FF"/>
<path d="M58.3597 44.933H21.7602C21.1814 44.933 20.7135 44.4621 20.7135 43.8832C20.7135 43.1874 21.1844 42.7196 21.7602 42.7196H58.3597C58.9385 42.7196 59.4094 43.1904 59.4094 43.7693C59.4094 44.4651 58.9385 44.933 58.3597 44.933Z" fill="#E1D3FF"/>
<path d="M15.5068 60.9303H11.5002C10.0487 60.9303 8.87009 59.7516 8.87009 58.3V54.2901C8.87009 52.8385 10.0487 51.6598 11.5002 51.6598H15.5068C16.9583 51.6598 18.1369 52.8385 18.1369 54.2901V58.3C18.1369 59.7516 16.9583 60.9303 15.5068 60.9303Z" fill="#E1D3FF"/>
<path d="M58.3595 57.4049H21.76C21.1812 57.4049 20.7133 56.934 20.7133 56.3551C20.7133 55.6593 21.1842 55.1915 21.76 55.1915H58.3595C58.9383 55.1915 59.4092 55.6623 59.4092 56.2412C59.4092 56.937 58.9383 57.4049 58.3595 57.4049Z" fill="#E1D3FF"/>
</g>
</svg>