<svg preserveAspectRatio="none" width="100%" height="100%" overflow="visible" style="display: block;" viewBox="0 0 23.9943 23.9943" fill="none" xmlns="http://www.w3.org/2000/svg">
<g id="Icon">
<path id="Vector" d="M11.9972 21.9948C9.34562 21.9948 6.80269 20.9415 4.92777 19.0666C3.05285 17.1916 1.99953 14.6487 1.99953 11.9972C1.99953 9.34562 3.05285 6.80269 4.92777 4.92777C6.80269 3.05285 9.34562 1.99953 11.9972 1.99953C14.6487 1.99953 17.1916 2.94751 19.0666 4.63494C20.9415 6.32237 21.9948 8.61101 21.9948 10.9974C21.9948 12.3232 21.4681 13.5946 20.5307 14.5321C19.5932 15.4696 18.3217 15.9962 16.996 15.9962H14.7465C14.4216 15.9962 14.1031 16.0867 13.8267 16.2575C13.5503 16.4283 13.3269 16.6727 13.1816 16.9634C13.0363 17.254 12.9748 17.5793 13.004 17.9029C13.0332 18.2265 13.1519 18.5356 13.3468 18.7956L13.6468 19.1955C13.8417 19.4554 13.9604 19.7645 13.9896 20.0881C14.0188 20.4117 13.9573 20.737 13.812 21.0276C13.6667 21.3183 13.4433 21.5627 13.1669 21.7335C12.8905 21.9043 12.572 21.9948 12.2471 21.9948H11.9972Z" stroke="currentColor" stroke-width="1.99953" stroke-linecap="round" stroke-linejoin="round"/>
<path id="Vector_2" d="M13.4969 6.99858C13.7731 6.99858 13.9969 6.77472 13.9969 6.49858C13.9969 6.22244 13.7731 5.99858 13.4969 5.99858C13.2208 5.99858 12.9969 6.22244 12.9969 6.49858C12.9969 6.77472 13.2208 6.99858 13.4969 6.99858Z" fill="currentColor" stroke="currentColor" stroke-width="1.99953" stroke-linecap="round" stroke-linejoin="round"/>
<path id="Vector_3" d="M17.496 10.9976C17.7721 10.9976 17.996 10.7738 17.996 10.4976C17.996 10.2215 17.7721 9.99763 17.496 9.99763C17.2198 9.99763 16.996 10.2215 16.996 10.4976C16.996 10.7738 17.2198 10.9976 17.496 10.9976Z" fill="currentColor" stroke="currentColor" stroke-width="1.99953" stroke-linecap="round" stroke-linejoin="round"/>
<path id="Vector_4" d="M6.49858 12.9972C6.77472 12.9972 6.99858 12.7733 6.99858 12.4972C6.99858 12.221 6.77472 11.9972 6.49858 11.9972C6.22244 11.9972 5.99858 12.221 5.99858 12.4972C5.99858 12.7733 6.22244 12.9972 6.49858 12.9972Z" fill="currentColor" stroke="currentColor" stroke-width="1.99953" stroke-linecap="round" stroke-linejoin="round"/>
<path id="Vector_5" d="M8.49811 7.99834C8.77425 7.99834 8.99811 7.77449 8.99811 7.49834C8.99811 7.2222 8.77425 6.99834 8.49811 6.99834C8.22197 6.99834 7.99811 7.2222 7.99811 7.49834C7.99811 7.77449 8.22197 7.99834 8.49811 7.99834Z" fill="currentColor" stroke="currentColor" stroke-width="1.99953" stroke-linecap="round" stroke-linejoin="round"/>
</g>
</svg>
