<svg width="24" height="24" viewBox="0 0 24 24" fill="none" xmlns="http://www.w3.org/2000/svg">
<path d="M10.75 20.75H5.75C4.09315 20.75 2.75 19.4069 2.75 17.75V7.75C2.75 6.09315 4.09315 4.75 5.75 4.75H17.75C19.4069 4.75 20.75 6.09315 20.75 7.75V10.25M7.75 6.75V2.75M15.75 6.75V2.75M7.76 9.75H7.75M7.76 12.75H7.75M7.76 15.75H7.75M11.76 12.75H11.75M11.76 9.75H11.75M15.76 9.75H15.75M17.75 15.25V17.0577L18.75 17.75M21.75 17.25C21.75 14.7647 19.7353 12.75 17.25 12.75C14.7647 12.75 12.75 14.7647 12.75 17.25C12.75 19.7353 14.7647 21.75 17.25 21.75C19.7353 21.75 21.75 19.7353 21.75 17.25Z" stroke="white" stroke-width="1.5" stroke-linecap="round" stroke-linejoin="round"/>
</svg>
