<svg preserveAspectRatio="none" width="100%" height="100%" overflow="visible" style="display: block;" viewBox="0 0 15.9962 15.9962" fill="none" xmlns="http://www.w3.org/2000/svg">
<g id="Icon" clip-path="url(#clip0_2951_12108)">
<path id="Vector" d="M7.99811 14.6632C6.23042 14.6632 4.53512 13.961 3.28518 12.711C2.03523 11.4611 1.33302 9.7658 1.33302 7.99811C1.33302 6.23042 2.03523 4.53512 3.28518 3.28518C4.53512 2.03523 6.23042 1.33302 7.99811 1.33302C9.7658 1.33302 11.4611 1.96501 12.711 3.08996C13.961 4.21491 14.6632 5.74068 14.6632 7.3316C14.6632 8.21544 14.3121 9.06309 13.6871 9.68806C13.0621 10.313 12.2145 10.6641 11.3307 10.6641H9.83101C9.61439 10.6641 9.40206 10.7245 9.2178 10.8383C9.03354 10.9522 8.88463 11.1152 8.78776 11.3089C8.69088 11.5027 8.64988 11.7195 8.66933 11.9353C8.68878 12.151 8.76793 12.3571 8.89789 12.5304L9.09785 12.797C9.22781 12.9703 9.30696 13.1763 9.32641 13.3921C9.34586 13.6078 9.30486 13.8247 9.20799 14.0184C9.11111 14.2122 8.9622 14.3751 8.77794 14.489C8.59368 14.6029 8.38135 14.6632 8.16473 14.6632H7.99811Z" stroke="currentColor" stroke-width="1.33302" stroke-linecap="round" stroke-linejoin="round"/>
<path id="Vector_2" d="M8.99787 4.66556C9.18192 4.66556 9.33113 4.51636 9.33113 4.33231C9.33113 4.14826 9.18192 3.99905 8.99787 3.99905C8.81382 3.99905 8.66462 4.14826 8.66462 4.33231C8.66462 4.51636 8.81382 4.66556 8.99787 4.66556Z" fill="currentColor" stroke="currentColor" stroke-width="1.33302" stroke-linecap="round" stroke-linejoin="round"/>
<path id="Vector_3" d="M11.6639 7.3316C11.848 7.3316 11.9972 7.18239 11.9972 6.99834C11.9972 6.81429 11.848 6.66509 11.6639 6.66509C11.4799 6.66509 11.3307 6.81429 11.3307 6.99834C11.3307 7.18239 11.4799 7.3316 11.6639 7.3316Z" fill="currentColor" stroke="currentColor" stroke-width="1.33302" stroke-linecap="round" stroke-linejoin="round"/>
<path id="Vector_4" d="M4.33231 8.66462C4.51636 8.66462 4.66556 8.51541 4.66556 8.33136C4.66556 8.14731 4.51636 7.99811 4.33231 7.99811C4.14826 7.99811 3.99905 8.14731 3.99905 8.33136C3.99905 8.51541 4.14826 8.66462 4.33231 8.66462Z" fill="currentColor" stroke="currentColor" stroke-width="1.33302" stroke-linecap="round" stroke-linejoin="round"/>
<path id="Vector_5" d="M5.66533 5.33207C5.84938 5.33207 5.99858 5.18287 5.99858 4.99882C5.99858 4.81477 5.84938 4.66556 5.66533 4.66556C5.48127 4.66556 5.33207 4.81477 5.33207 4.99882C5.33207 5.18287 5.48127 5.33207 5.66533 5.33207Z" fill="currentColor" stroke="currentColor" stroke-width="1.33302" stroke-linecap="round" stroke-linejoin="round"/>
</g>
<defs>
<clipPath id="clip0_2951_12108">
<rect width="15.9962" height="15.9962" fill="white"/>
</clipPath>
</defs>
</svg>
