<svg preserveAspectRatio="none" width="100%" height="100%" overflow="visible" style="display: block;" viewBox="0 0 31.9924 31.9924" fill="none" xmlns="http://www.w3.org/2000/svg">
<g id="Icon">
<path id="Vector" d="M7.7315 15.0625L2.66603 29.3258L16.9293 24.2737" stroke="white" stroke-width="2.66604" stroke-linecap="round" stroke-linejoin="round"/>
<path id="Vector_2" d="M5.33208 4H5.34541" stroke="white" stroke-width="2.66604" stroke-linecap="round" stroke-linejoin="round"/>
<path id="Vector_3" d="M29.3264 10.6641H29.3397" stroke="white" stroke-width="2.66604" stroke-linecap="round" stroke-linejoin="round"/>
<path id="Vector_4" d="M19.9953 2.66797H20.0086" stroke="white" stroke-width="2.66604" stroke-linecap="round" stroke-linejoin="round"/>
<path id="Vector_5" d="M29.3264 26.6604H29.3397" stroke="white" stroke-width="2.66604" stroke-linecap="round" stroke-linejoin="round"/>
<path id="Vector_6" d="M29.3264 2.66797L26.3404 3.66773C25.4905 3.95085 24.7652 4.52038 24.2887 5.27898C23.8121 6.03758 23.6138 6.93815 23.7277 7.82675C23.861 8.97314 22.9679 9.99957 21.7948 9.99957H21.2883C20.1419 9.99957 19.1555 10.7994 18.9422 11.9191L18.6622 13.3321" stroke="white" stroke-width="2.66604" stroke-linecap="round" stroke-linejoin="round"/>
<path id="Vector_7" d="M29.3264 17.3305L28.2333 16.8906C27.0869 16.4374 25.8072 17.1572 25.5939 18.3703C25.4473 19.3034 24.6342 19.9965 23.6877 19.9965H22.6613" stroke="white" stroke-width="2.66604" stroke-linecap="round" stroke-linejoin="round"/>
<path id="Vector_8" d="M14.6632 2.66797L15.1031 3.76104C15.5563 4.90744 14.8365 6.18714 13.6234 6.40042C12.6903 6.53372 11.9972 7.36019 11.9972 8.30663V9.33306" stroke="white" stroke-width="2.66604" stroke-linecap="round" stroke-linejoin="round"/>
<path id="Vector_9" d="M14.6632 17.3281C17.2359 19.9008 18.4356 22.8868 17.3292 23.9932C16.2228 25.0996 13.2369 23.8998 10.6641 21.3271C8.09141 18.7544 6.89169 15.7684 7.99809 14.662C9.1045 13.5556 12.0905 14.7553 14.6632 17.3281Z" stroke="white" stroke-width="2.66604" stroke-linecap="round" stroke-linejoin="round"/>
</g>
</svg>
