<svg width="24" height="24" viewBox="0 0 21.5 21.5" fill="none" xmlns="http://www.w3.org/2000/svg">
<path fill-rule="evenodd" clip-rule="evenodd" d="M17.25 0C17.6642 0 18 0.335786 18 0.75V3.5H20.75C21.1642 3.5 21.5 3.83579 21.5 4.25C21.5 4.66421 21.1642 5 20.75 5H18V7.75C18 8.16421 17.6642 8.5 17.25 8.5C16.8358 8.5 16.5 8.16421 16.5 7.75V5H13.75C13.3358 5 13 4.66421 13 4.25C13 3.83579 13.3358 3.5 13.75 3.5H16.5V0.75C16.5 0.335786 16.8358 0 17.25 0Z" fill="black"/>
<path fill-rule="evenodd" clip-rule="evenodd" d="M10.75 4.49959e-07L10.6926 2.1154e-07C8.38423 -1.26631e-05 6.57519 -2.28584e-05 5.16371 0.189747C3.71897 0.383986 2.57895 0.789327 1.68414 1.68414C0.789327 2.57895 0.383986 3.71897 0.189747 5.16371C-2.28584e-05 6.57519 -1.26631e-05 8.38423 2.1154e-07 10.6926V10.8074C-1.26631e-05 13.1158 -2.28584e-05 14.9248 0.189747 16.3363C0.383986 17.781 0.789327 18.9211 1.68414 19.8159C2.57895 20.7107 3.71897 21.116 5.16371 21.3103C6.57519 21.5 8.38423 21.5 10.6926 21.5H10.8074C13.1158 21.5 14.9248 21.5 16.3363 21.3103C17.781 21.116 18.9211 20.7107 19.8159 19.8159C20.7107 18.9211 21.116 17.781 21.3103 16.3363C21.5 14.9248 21.5 13.1158 21.5 10.8074V10.75C21.5 10.3358 21.1642 10 20.75 10C20.3358 10 20 10.3358 20 10.75C20 13.1282 19.9984 14.8364 19.8236 16.1364C19.8167 16.1877 19.8096 16.2382 19.8022 16.2878L17.0282 13.7912C15.7288 12.6218 13.7937 12.5053 12.3634 13.5105L12.0652 13.7201C11.5682 14.0693 10.8921 14.0108 10.4625 13.5813L6.17282 9.29152C5.03741 8.15612 3.21613 8.09547 2.00771 9.15283L1.50098 9.59622C1.50552 7.80395 1.53124 6.44302 1.67637 5.36358C1.84825 4.08517 2.17514 3.31445 2.7448 2.7448C3.31445 2.17514 4.08517 1.84825 5.36358 1.67637C6.66356 1.50159 8.37178 1.5 10.75 1.5C11.1642 1.5 11.5 1.16421 11.5 0.75C11.5 0.335787 11.1642 4.49959e-07 10.75 4.49959e-07ZM1.67637 16.1364C1.84825 17.4148 2.17514 18.1855 2.7448 18.7552C3.31445 19.3249 4.08517 19.6518 5.36358 19.8236C6.66356 19.9984 8.37178 20 10.75 20C13.1282 20 14.8364 19.9984 16.1364 19.8236C17.4148 19.6518 18.1855 19.3249 18.7552 18.7552C18.9987 18.5117 19.1979 18.2314 19.3596 17.8904C19.3207 17.8666 19.2834 17.839 19.2483 17.8074L16.0247 14.9062C15.2451 14.2045 14.084 14.1346 13.2258 14.7377L12.9276 14.9473C11.8343 15.7157 10.3468 15.5869 9.40188 14.6419L5.11216 10.3522C4.53515 9.77518 3.60958 9.74435 2.99546 10.2817L1.50038 11.5899C1.50296 13.5384 1.52289 14.9948 1.67637 16.1364Z" fill="black"/>
</svg>
