<svg preserveAspectRatio="none" width="100%" height="100%" overflow="visible" style="display: block;" viewBox="0 0 15.9962 15.9962" fill="none" xmlns="http://www.w3.org/2000/svg">
<g id="Icon">
<path id="Vector" d="M13.9967 2.66604V13.3302" stroke="currentColor" stroke-width="1.33302" stroke-linecap="round" stroke-linejoin="round"/>
<path id="Vector_2" d="M4.01838 2.85599C3.8161 2.73462 3.58524 2.66911 3.34936 2.66613C3.11349 2.66316 2.88104 2.72283 2.67577 2.83905C2.47049 2.95528 2.29973 3.1239 2.18093 3.32769C2.06212 3.53149 1.99952 3.76316 1.99953 3.99906V11.9972C1.99952 12.2331 2.06212 12.4647 2.18093 12.6685C2.29973 12.8723 2.47049 13.0409 2.67577 13.1572C2.88104 13.2734 3.11349 13.3331 3.34936 13.3301C3.58524 13.3271 3.8161 13.2616 4.01838 13.1402L10.6815 9.14251C10.8793 9.02433 11.0431 8.85689 11.1569 8.65654C11.2707 8.45619 11.3306 8.22976 11.3308 7.99934C11.331 7.76893 11.2715 7.54239 11.158 7.34184C11.0446 7.14129 10.8811 6.97357 10.6835 6.85505L4.01838 2.85599Z" stroke="currentColor" stroke-width="1.33302" stroke-linecap="round" stroke-linejoin="round"/>
</g>
</svg>
