<svg width="24" height="24" viewBox="0 0 24 24" fill="none" xmlns="http://www.w3.org/2000/svg">
<path d="M11 9C10.449 9 10 8.551 10 8C10 7.449 10.449 7 11 7C11.551 7 12 7.449 12 8C12 8.551 11.551 9 11 9Z" fill="white"/>
<path d="M16.737 8.513C16.054 7.83 14.945 7.83 14.262 8.513L8.782 13.991C9.07 14.151 9.396 14.251 9.749 14.251H17.249C18.354 14.251 19.249 13.355 19.249 12.251V11.026L16.736 8.513H16.737Z" fill="white"/>
<path d="M15.25 18H6.75C5.233 18 4 16.767 4 15.25V8.75C4 8.336 4.336 8 4.75 8C5.164 8 5.5 8.336 5.5 8.75V15.25C5.5 15.939 6.061 16.5 6.75 16.5H15.25C15.664 16.5 16 16.836 16 17.25C16 17.664 15.664 18 15.25 18Z" fill="white"/>
<path d="M17.25 15H9.75C8.233 15 7 13.767 7 12.25V6.75C7 5.233 8.233 4 9.75 4H17.25C18.767 4 20 5.233 20 6.75V12.25C20 13.767 18.767 15 17.25 15ZM9.75 5.5C9.061 5.5 8.5 6.061 8.5 6.75V12.25C8.5 12.939 9.061 13.5 9.75 13.5H17.25C17.939 13.5 18.5 12.939 18.5 12.25V6.75C18.5 6.061 17.939 5.5 17.25 5.5H9.75Z" fill="white"/>
</svg>
