<svg preserveAspectRatio="none" width="100%" height="100%" overflow="visible" style="display: block;" viewBox="0 0 19.9905 19.9905" fill="none" xmlns="http://www.w3.org/2000/svg">
<g id="Icon" clip-path="url(#clip0_2990_12413)">
<path id="Vector" d="M16.6587 8.32936C16.6587 12.4882 12.0451 16.8195 10.4958 18.1572C10.3515 18.2657 10.1758 18.3244 9.99523 18.3244C9.81465 18.3244 9.63896 18.2657 9.49463 18.1572C7.94537 16.8195 3.33174 12.4882 3.33174 8.32936C3.33174 6.56209 4.03379 4.86721 5.28343 3.61756C6.53308 2.36792 8.22796 1.66587 9.99523 1.66587C11.7625 1.66587 13.4574 2.36792 14.707 3.61756C15.9567 4.86721 16.6587 6.56209 16.6587 8.32936Z" stroke="white" stroke-width="1.66587" stroke-linecap="round" stroke-linejoin="round"/>
<path id="Vector_2" d="M9.99523 10.8282C11.3753 10.8282 12.494 9.70941 12.494 8.32936C12.494 6.9493 11.3753 5.83055 9.99523 5.83055C8.61517 5.83055 7.49642 6.9493 7.49642 8.32936C7.49642 9.70941 8.61517 10.8282 9.99523 10.8282Z" stroke="white" stroke-width="1.66587" stroke-linecap="round" stroke-linejoin="round"/>
</g>
<defs>
<clipPath id="clip0_2990_12413">
<rect width="19.9905" height="19.9905" fill="white"/>
</clipPath>
</defs>
</svg>
