<svg width="28" height="28" viewBox="0 0 28 28" fill="none" xmlns="http://www.w3.org/2000/svg">
<path d="M19.8321 16.3323L23.3318 20.182C23.4917 20.3451 23.6002 20.5515 23.6439 20.7756C23.6876 20.9998 23.6645 21.2318 23.5775 21.4429C23.4906 21.6541 23.3436 21.8351 23.1548 21.9635C22.9659 22.0919 22.7435 22.162 22.5152 22.1652H5.48298C5.25465 22.162 5.03228 22.0919 4.84344 21.9635C4.6546 21.8351 4.50759 21.6541 4.42064 21.4429C4.3337 21.2318 4.31064 20.9998 4.35431 20.7756C4.39799 20.5515 4.50649 20.3451 4.66637 20.182L8.16614 16.3323H7.81616C7.58783 16.3291 7.36546 16.2589 7.17662 16.1305C6.98778 16.0021 6.84077 15.8211 6.75383 15.61C6.66688 15.3988 6.64382 15.1668 6.6875 14.9427C6.73118 14.7185 6.83968 14.5121 6.99955 14.3491L10.4993 10.4993H10.266C10.0277 10.5208 9.7886 10.4685 9.58104 10.3496C9.37347 10.2306 9.20751 10.0507 9.10564 9.83418C9.00377 9.6177 8.97092 9.37514 9.01154 9.13937C9.05216 8.9036 9.16429 8.68602 9.33273 8.51612L13.9991 3.49977L18.6655 8.51612C18.8339 8.68602 18.946 8.9036 18.9867 9.13937C19.0273 9.37514 18.9944 9.6177 18.8926 9.83418C18.7907 10.0507 18.6247 10.2306 18.4172 10.3496C18.2096 10.4685 17.9705 10.5208 17.7322 10.4993H17.4989L20.9986 14.3491C21.1585 14.5121 21.267 14.7185 21.3107 14.9427C21.3544 15.1668 21.3313 15.3988 21.2444 15.61C21.1574 15.8211 21.0104 16.0021 20.8216 16.1305C20.6327 16.2589 20.4104 16.3291 20.182 16.3323H19.8321Z" stroke="currentColor" stroke-width="2.33318" stroke-linecap="round" stroke-linejoin="round"/>
<path d="M13.9991 25.665V22.1652" stroke="currentColor" stroke-width="2.33318" stroke-linecap="round" stroke-linejoin="round"/>
</svg>
