<svg width="138" height="134" viewBox="0 0 138 134" fill="none" xmlns="http://www.w3.org/2000/svg">
  <!-- Background circle - white -->
  <circle cx="69" cy="67" r="53" fill="#FFFFFF"/>

  <!-- Decorative X - top right -->
  <g transform="translate(105, 15)">
    <path d="M1.5 1.5L12 12M12 1.5L1.5 12" stroke="#A17BF4" stroke-width="2" stroke-linecap="round"/>
  </g>

  <!-- Small X - top right -->
  <g transform="translate(122, 32)">
    <path d="M1 1L8 8M8 1L1 8" stroke="#E1D3FF" stroke-width="1.5" stroke-linecap="round"/>
  </g>

  <!-- Decorative X - bottom left -->
  <g transform="translate(20, 105)">
    <path d="M1.5 1.5L12 12M12 1.5L1.5 12" stroke="#A17BF4" stroke-width="2" stroke-linecap="round"/>
  </g>

  <!-- Small circle - bottom left -->
  <circle cx="8" cy="95" r="4" stroke="#E1D3FF" stroke-width="1.5" fill="none"/>

  <!-- Small dot - top right -->
  <circle cx="130" cy="15" r="2" fill="#E1D3FF"/>

  <!-- People icons - centered -->
  <g transform="translate(16, 41)">
    <g clip-path="url(#clip0)">
      <path d="M33.1696 33.2499C28.583 37.231 25.9961 42.3205 25.9961 46.8884C25.9961 48.2308 26.3262 49.4811 26.9595 50.5588H5.81904C2.31482 50.5588 0.959961 49.1781 0.959961 46.6966C0.959961 39.0566 8.7437 29.8709 21.1946 29.8709C25.9155 29.8709 29.9686 31.1941 33.1734 33.2537L33.1696 33.2499ZM30.7976 15.0281C30.7976 21.0151 26.3531 25.6482 21.1908 25.6482C16.0285 25.6482 11.5839 21.0151 11.5839 15.0818C11.5839 9.14845 16.0822 4.71094 21.1908 4.71094C26.2993 4.71094 30.7976 9.09859 30.7976 15.0281Z" fill="#E1D3FF"/>
      <path d="M28.6363 51.5138H5.81862C1.95745 51.5138 0 49.8914 0 46.6927C0 42.5352 2.14936 38.0555 5.75337 34.7111C9.78341 30.9677 15.2681 28.9082 21.1904 28.9082C25.7693 28.9082 30.091 30.1316 33.6873 32.4444L34.762 33.1347L33.7948 33.9747C29.5076 37.695 26.9514 42.5237 26.9514 46.8883C26.9514 48.062 27.2316 49.132 27.7843 50.0717L28.6363 51.5176V51.5138ZM21.1942 30.8258C12.0786 30.8258 1.91907 37.3421 1.91907 46.6927C1.91907 49.1013 3.47735 49.5961 5.81862 49.5961H25.4737C25.1859 48.7446 25.0362 47.828 25.0362 46.8845C25.0362 42.3204 27.458 37.3613 31.5725 33.4109C28.5135 31.7156 24.9517 30.8258 21.1942 30.8258ZM21.1942 26.6069C15.3679 26.6069 10.6278 21.4369 10.6278 15.0855C10.6278 8.73416 15.3679 3.75586 21.1942 3.75586C27.0205 3.75586 31.7606 8.8147 31.7606 15.0318C31.7606 21.2489 27.0205 26.6108 21.1942 26.6108V26.6069ZM21.1942 5.6697C16.4272 5.6697 12.5469 9.89244 12.5469 15.0817C12.5469 20.2709 16.4272 24.6854 21.1942 24.6854C25.9612 24.6854 29.8415 20.3515 29.8415 15.0241C29.8415 9.69683 25.9612 5.66587 21.1942 5.66587V5.6697Z" fill="#A17BF4"/>
      <path d="M104.996 46.6928C104.996 49.1743 103.645 50.555 100.137 50.555H79.0274C79.6569 49.4773 79.987 48.227 79.987 46.8846C79.987 42.3167 77.4039 37.2233 72.8135 33.2384C76.0145 31.1826 80.0637 29.8632 84.7923 29.8632C97.2432 29.8632 104.996 39.0489 104.996 46.689V46.6928ZM94.3992 15.0281C94.3992 21.0151 89.9546 25.6482 84.7923 25.6482C79.63 25.6482 75.1586 21.0151 75.1586 15.0818C75.1586 9.14845 79.6569 4.71094 84.7923 4.71094C89.9277 4.71094 94.3992 9.09859 94.3992 15.0281Z" fill="#E1D3FF"/>
      <path d="M100.141 51.5138H77.3578L78.2022 50.0717C78.7511 49.1359 79.0274 48.0658 79.0274 46.8883C79.0274 42.516 76.4674 37.6835 72.184 33.967L71.2168 33.1271L72.2953 32.4367C75.8878 30.1316 80.2096 28.912 84.7923 28.912C90.7145 28.912 96.1916 30.9754 100.218 34.7149C103.81 38.0593 105.96 42.5352 105.96 46.6966C105.96 49.8953 104.002 51.5176 100.141 51.5176V51.5138ZM80.5128 49.5961H100.137C103.373 49.5961 104.037 48.434 104.037 46.6927C104.037 43.0568 102.118 39.1025 98.909 36.1148C95.2397 32.7013 90.2271 30.8258 84.7923 30.8258C81.0309 30.8258 77.473 31.7118 74.414 33.4032C78.5246 37.3536 80.9465 42.3166 80.9465 46.8883C80.9465 47.828 80.7968 48.7446 80.5128 49.5999V49.5961ZM84.7923 26.6069C78.9506 26.6069 74.199 21.4369 74.199 15.0855C74.199 8.73416 78.9506 3.75586 84.7923 3.75586C90.6339 3.75586 95.3587 8.8147 95.3587 15.0318C95.3587 21.2489 90.6186 26.6108 84.7923 26.6108V26.6069ZM84.7923 5.6697C80.01 5.6697 76.1181 9.89244 76.1181 15.0817C76.1181 20.2709 80.0906 24.6854 84.7923 24.6854C89.494 24.6854 93.4396 20.3515 93.4396 15.0241C93.4396 9.69683 89.5593 5.66587 84.7923 5.66587V5.6697Z" fill="#A17BF4"/>
      <path d="M53.0202 25.0105C58.9271 25.0105 64.0625 19.7138 64.0625 12.8178C64.0625 5.92187 58.9271 0.955078 53.0202 0.955078C47.1133 0.955078 41.9779 6.11364 41.9779 12.8715C41.9779 19.6295 47.0864 25.0066 53.0202 25.0066V25.0105ZM34.4705 50.554H71.5162C74.4715 50.554 76.2371 49.1732 76.2371 46.8835C76.2371 39.7689 67.3211 29.9466 52.9933 29.9466C38.6656 29.9466 29.7803 39.7651 29.7803 46.8835C29.7803 49.1732 31.5458 50.554 34.4743 50.554H34.4705Z" fill="#A17BF4"/>
      <path d="M71.5162 51.5127H34.4705C30.9854 51.5127 28.8169 49.7408 28.8169 46.8835C28.8169 39.4122 38.0131 28.9877 52.9895 28.9877C67.9659 28.9877 77.1928 39.4083 77.1928 46.8835C77.1928 49.737 75.0166 51.5127 71.5123 51.5127H71.5162ZM52.9933 30.9092C39.2029 30.9092 30.7398 40.2138 30.7398 46.8873C30.7398 49.3343 33.3497 49.5989 34.4743 49.5989H71.52C72.9248 49.5989 75.2814 49.246 75.2814 46.8873C75.2814 40.2138 66.8029 30.9092 52.9972 30.9092H52.9933ZM53.0202 25.9692C46.4032 25.9692 41.0183 20.0935 41.0183 12.8753C41.0183 5.65716 46.4032 0 53.0202 0C59.6371 0 65.022 5.74921 65.022 12.8216C65.022 19.894 59.6371 25.9731 53.0202 25.9731V25.9692ZM53.0202 1.91768C47.4626 1.91768 42.9374 6.83461 42.9374 12.8753C42.9374 18.916 47.4587 24.0515 53.0202 24.0515C58.5816 24.0515 63.103 19.0119 63.103 12.8178C63.103 6.62367 58.5816 1.91385 53.0202 1.91385V1.91768Z" fill="#8251EB"/>
    </g>
  </g>

  <defs>
    <clipPath id="clip0">
      <rect width="106" height="52" fill="white"/>
    </clipPath>
  </defs>
</svg>
