<svg preserveAspectRatio="none" width="100%" height="100%" overflow="visible" style="display: block;" viewBox="0 0 31.9924 31.9924" fill="none" xmlns="http://www.w3.org/2000/svg">
<g id="Icon">
<path id="Vector" d="M13.3302 21.3283C13.9967 21.7282 14.9298 21.9948 15.9962 21.9948C17.0626 21.9948 17.9957 21.7282 18.6622 21.3283" stroke="white" stroke-width="2.66604" stroke-linecap="round" stroke-linejoin="round"/>
<path id="Vector_2" d="M19.9953 15.9962H20.0086" stroke="white" stroke-width="2.66604" stroke-linecap="round" stroke-linejoin="round"/>
<path id="Vector_3" d="M25.8339 9.0828C26.7685 10.4417 27.4128 11.9786 27.7268 13.5977C28.1775 13.816 28.5577 14.1569 28.8236 14.5813C29.0896 15.0056 29.2307 15.4963 29.2307 15.9972C29.2307 16.498 29.0896 16.9887 28.8236 17.4131C28.5577 17.8374 28.1775 18.1783 27.7268 18.3966C27.1513 21.0806 25.6728 23.4861 23.538 25.2117C21.4032 26.9373 18.7412 27.8786 15.9962 27.8786C13.2512 27.8786 10.5892 26.9373 8.45442 25.2117C6.31962 23.4861 4.84113 21.0806 4.26566 18.3966C3.81491 18.1783 3.43477 17.8374 3.16878 17.4131C2.90279 16.9887 2.76172 16.498 2.76172 15.9972C2.76172 15.4963 2.90279 15.0056 3.16878 14.5813C3.43477 14.1569 3.81491 13.816 4.26566 13.5977C4.81788 10.8924 6.28637 8.4603 8.42337 6.71185C10.5604 4.96339 13.2351 4.00557 15.9962 4C18.6622 4 20.6618 5.46632 20.6618 7.33254C20.6618 9.19877 19.4621 10.6651 17.9957 10.6651C16.9293 10.6651 15.9962 10.1319 15.9962 9.33207" stroke="white" stroke-width="2.66604" stroke-linecap="round" stroke-linejoin="round"/>
<path id="Vector_4" d="M11.9972 15.9962H12.0105" stroke="white" stroke-width="2.66604" stroke-linecap="round" stroke-linejoin="round"/>
</g>
</svg>
