<svg preserveAspectRatio="none" width="100%" height="100%" overflow="visible" style="display: block;" viewBox="0 0 31.9924 31.9924" fill="none" xmlns="http://www.w3.org/2000/svg">
<g id="Icon">
<path id="Vector" d="M2.66603 12.6656C2.66606 11.1823 3.11605 9.73377 3.95657 8.5115C4.79709 7.28923 5.9886 6.35067 7.37373 5.81978C8.75886 5.2889 10.2724 5.19066 11.7146 5.53804C13.1567 5.88543 14.4595 6.66209 15.451 7.76546C15.5208 7.84012 15.6053 7.89965 15.699 7.94035C15.7928 7.98105 15.894 8.00205 15.9962 8.00205C16.0984 8.00205 16.1996 7.98105 16.2934 7.94035C16.3872 7.89965 16.4716 7.84012 16.5414 7.76546C17.5298 6.65492 18.8329 5.87173 20.2774 5.52012C21.7218 5.16852 23.2392 5.26518 24.6273 5.79723C26.0155 6.32929 27.2087 7.27151 28.0482 8.49849C28.8876 9.72546 29.3335 11.179 29.3264 12.6656C29.3264 15.7182 27.3269 17.9977 25.3273 19.9972L18.0064 27.0796C17.758 27.3648 17.4518 27.594 17.108 27.7518C16.7642 27.9096 16.3908 27.9925 16.0126 27.9949C15.6343 27.9973 15.2599 27.9191 14.9142 27.7657C14.5684 27.6122 14.2593 27.387 14.0073 27.1049L6.66508 19.9972C4.66556 17.9977 2.66603 15.7316 2.66603 12.6656Z" stroke="white" stroke-width="2.66604" stroke-linecap="round" stroke-linejoin="round"/>
</g>
</svg>
