<svg width="184" height="156" viewBox="0 0 184 156" fill="none" xmlns="http://www.w3.org/2000/svg">
<path d="M140.892 152.891H50.2616C44.7791 152.891 40.3364 148.298 40.3364 142.632V66.9564C40.3364 61.2895 44.7791 56.6973 50.2616 56.6973H140.892C146.374 56.6973 151.329 63.9264 151.329 69.5934L150.817 142.627C150.817 148.293 146.374 152.886 140.892 152.886V152.891Z" fill="#9C9CA6" fill-opacity="0.2"/>
<path d="M130.021 47.543H41.5596C35.479 47.543 30.5498 52.4725 30.5498 58.5534V132.726C30.5498 138.807 35.479 143.736 41.5596 143.736H130.021C136.101 143.736 141.03 138.807 141.03 132.726V58.5534C141.03 52.4725 136.101 47.543 130.021 47.543Z" fill="#F2F2F7"/>
<path d="M130.767 145.293H40.8085C34.2912 145.293 28.9878 139.99 28.9878 133.472V57.8019C28.9878 51.2842 34.2862 45.9805 40.8085 45.9805H130.767C137.284 45.9805 142.588 51.2842 142.588 57.8019V133.472C142.588 139.99 137.289 145.293 130.767 145.293ZM40.8085 49.1C36.0076 49.1 32.1071 53.0057 32.1071 57.8019V133.472C32.1071 138.273 36.0125 142.174 40.8085 142.174H130.767C135.568 142.174 139.468 138.268 139.468 133.472V57.8019C139.468 53.0007 135.563 49.1 130.767 49.1H40.8085Z" fill="#8251EB"/>
<path d="M106.031 40.6417H98.0962C98.0514 33.6463 92.5639 27.9844 85.7879 27.9844C79.0119 27.9844 73.5195 33.6463 73.4797 40.6417H65.5445C62.8232 40.6417 60.6143 42.9254 60.6143 45.7364V56.115C60.6143 58.9311 62.8182 61.2098 65.5445 61.2098H106.036C108.758 61.2098 110.967 58.9261 110.967 56.115V45.7364C110.967 42.9204 108.763 40.6417 106.036 40.6417H106.031ZM85.7879 45.1941C83.4944 45.1941 81.6338 43.2687 81.6338 40.8954C81.6338 38.5222 83.4944 36.6017 85.7879 36.6017C88.0814 36.6017 89.9421 38.5271 89.9421 40.8954C89.9421 43.2637 88.0814 45.1941 85.7879 45.1941Z" fill="#A17BF4"/>
<path d="M106.031 62.7677H65.5396C61.9626 62.7677 59.0571 59.7825 59.0571 56.1157V45.7371C59.0571 42.0702 61.9675 39.085 65.5396 39.085H72.0071C72.8032 31.9752 78.6936 26.4277 85.783 26.4277C92.8724 26.4277 98.7629 31.9802 99.5639 39.085H106.031C109.608 39.085 112.514 42.0702 112.514 45.7371V56.1157C112.514 59.7825 109.603 62.7677 106.031 62.7677ZM65.5446 42.1996C63.6889 42.1996 62.1765 43.7867 62.1765 45.7371V56.1157C62.1765 58.066 63.6889 59.6531 65.5446 59.6531H106.036C107.892 59.6531 109.404 58.066 109.404 56.1157V45.7371C109.404 43.7867 107.892 42.1996 106.036 42.1996H96.554L96.544 40.6523C96.5042 34.5276 91.6834 29.5423 85.788 29.5423C79.8926 29.5423 75.0718 34.5276 75.0369 40.6523L75.027 42.1996H65.5396H65.5446ZM85.788 46.757C82.6388 46.757 80.0767 44.13 80.0767 40.901C80.0767 37.672 82.6388 35.045 85.788 35.045C88.9372 35.045 91.5043 37.672 91.5043 40.901C91.5043 44.13 88.9422 46.757 85.788 46.757ZM85.788 38.1646C84.3602 38.1646 83.191 39.3935 83.191 40.901C83.191 42.4086 84.3552 43.6375 85.788 43.6375C87.2208 43.6375 88.385 42.4086 88.385 40.901C88.385 39.3935 87.2208 38.1646 85.788 38.1646Z" fill="#8251EB"/>
<path d="M54.7139 86.1366H48.0672C45.6593 86.1366 43.7041 84.1813 43.7041 81.7732V75.1212C43.7041 72.7131 45.6593 70.7578 48.0672 70.7578H54.7139C57.1218 70.7578 59.077 72.7131 59.077 75.1212V81.7732C59.077 84.1813 57.1218 86.1366 54.7139 86.1366ZM48.0672 73.8774C47.3807 73.8774 46.8185 74.4346 46.8185 75.1212V81.7732C46.8185 82.4598 47.3807 83.0171 48.0672 83.0171H54.7139C55.4004 83.0171 55.9626 82.4598 55.9626 81.7732V75.1212C55.9626 74.4346 55.4004 73.8774 54.7139 73.8774H48.0672Z" fill="#E1D3FF"/>
<path d="M125.802 80.2851H65.0869C64.1267 80.2851 63.3506 79.504 63.3506 78.5437C63.3506 77.3894 64.1317 76.6133 65.0869 76.6133H125.802C126.762 76.6133 127.543 77.3944 127.543 78.3547C127.543 79.5089 126.762 80.2851 125.802 80.2851Z" fill="#E1D3FF"/>
<path d="M54.7139 106.818H48.0672C45.6593 106.818 43.7041 104.863 43.7041 102.455V95.8028C43.7041 93.3948 45.6593 91.4395 48.0672 91.4395H54.7139C57.1218 91.4395 59.077 93.3948 59.077 95.8028V102.455C59.077 104.863 57.1218 106.818 54.7139 106.818ZM48.0672 94.559C47.3807 94.559 46.8185 95.1162 46.8185 95.8028V102.455C46.8185 103.141 47.3807 103.699 48.0672 103.699H54.7139C55.4004 103.699 55.9626 103.141 55.9626 102.455V95.8028C55.9626 95.1162 55.4004 94.559 54.7139 94.559H48.0672Z" fill="#E1D3FF"/>
<path d="M125.802 100.969H65.0869C64.1267 100.969 63.3506 100.188 63.3506 99.2273C63.3506 98.073 64.1317 97.2969 65.0869 97.2969H125.802C126.762 97.2969 127.543 98.078 127.543 99.0382C127.543 100.193 126.762 100.969 125.802 100.969Z" fill="#E1D3FF"/>
<path d="M54.7139 127.506H48.0672C45.6593 127.506 43.7041 125.55 43.7041 123.142V116.49C43.7041 114.082 45.6593 112.127 48.0672 112.127H54.7139C57.1218 112.127 59.077 114.082 59.077 116.49V123.142C59.077 125.55 57.1218 127.506 54.7139 127.506ZM48.0672 115.247C47.3807 115.247 46.8185 115.804 46.8185 116.49V123.142C46.8185 123.829 47.3807 124.386 48.0672 124.386H54.7139C55.4004 124.386 55.9626 123.829 55.9626 123.142V116.49C55.9626 115.804 55.4004 115.247 54.7139 115.247H48.0672Z" fill="#E1D3FF"/>
<path d="M125.802 121.656H65.0869C64.1267 121.656 63.3506 120.875 63.3506 119.915C63.3506 118.761 64.1317 117.984 65.0869 117.984H125.802C126.762 117.984 127.543 118.766 127.543 119.726C127.543 120.88 126.762 121.656 125.802 121.656Z" fill="#E1D3FF"/>
<path d="M152.338 29.2222C151.705 29.894 150.65 29.9393 149.959 29.328L135.81 15.1784C135.166 14.5345 135.141 13.4988 135.752 12.8241C136.356 12.1581 137.372 12.0739 138.077 12.6315L138.158 12.6954L152.303 26.8412C152.957 27.4948 152.972 28.5495 152.338 29.2222Z" fill="#E1D3FF"/>
<path d="M138.23 29.2584C137.577 29.911 136.524 29.9278 135.851 29.2963C135.177 28.6637 135.133 27.6043 135.746 26.9118L149.889 12.7676C150.541 12.1156 151.593 12.0989 152.265 12.73C152.911 13.3363 152.986 14.336 152.438 15.0319L152.372 15.1152L138.23 29.2584Z" fill="#E1D3FF"/>
<path d="M12.9203 149.265C12.3074 149.918 11.2868 149.966 10.6147 149.375L10.572 149.337L1.13587 139.896C0.502944 139.263 0.487421 138.241 1.10081 137.589C1.71513 136.936 2.73755 136.89 3.40817 137.485L3.44273 137.516L12.8836 146.957C13.5168 147.59 13.533 148.612 12.9203 149.265Z" fill="#E1D3FF"/>
<path d="M3.47843 149.302C2.8457 149.934 1.8252 149.95 1.17286 149.338C0.519532 148.725 0.471876 147.704 1.06528 147.032L1.09948 146.994L10.5389 137.554C11.1727 136.92 12.1953 136.904 12.8482 137.518C13.501 138.132 13.5481 139.154 12.9546 139.825L12.9202 139.864L3.47843 149.302Z" fill="#E1D3FF"/>
<path d="M27.3248 13.329C23.6482 13.329 20.6582 10.3388 20.6582 6.66697C20.6582 2.99516 23.6482 0 27.3248 0C31.0013 0 33.9863 2.99019 33.9863 6.66697C33.9863 10.3438 30.9963 13.329 27.3248 13.329ZM27.3248 3.11457C25.3696 3.11457 23.7776 4.70668 23.7776 6.66199C23.7776 8.61731 25.3696 10.2094 27.3248 10.2094C29.2799 10.2094 30.872 8.61731 30.872 6.66199C30.872 4.70668 29.2799 3.11457 27.3248 3.11457Z" fill="#A17BF4"/>
<path d="M177.338 155.411C173.662 155.411 170.672 152.421 170.672 148.749C170.672 145.077 173.662 142.082 177.338 142.082C181.015 142.082 184 145.072 184 148.749C184 152.426 181.01 155.411 177.338 155.411ZM177.338 145.197C175.383 145.197 173.791 146.789 173.791 148.744C173.791 150.699 175.383 152.291 177.338 152.291C179.294 152.291 180.886 150.699 180.886 148.744C180.886 146.789 179.294 145.197 177.338 145.197Z" fill="#A17BF4"/>
<path d="M168.631 135.5C167.068 135.5 165.8 134.231 165.8 132.669C165.8 131.107 167.068 129.838 168.631 129.838C170.193 129.838 171.461 131.107 171.461 132.669C171.461 134.231 170.193 135.5 168.631 135.5ZM168.631 132.385C168.471 132.385 168.347 132.515 168.347 132.674C168.347 132.992 168.919 132.992 168.919 132.674C168.919 132.515 168.79 132.385 168.636 132.385H168.631Z" fill="#A17BF4"/>
<path d="M14.5984 23.619C13.0362 23.619 11.7676 22.3503 11.7676 20.788C11.7676 19.2257 13.0362 17.957 14.5984 17.957C16.1605 17.957 17.4292 19.2257 17.4292 20.788C17.4292 22.3503 16.1605 23.619 14.5984 23.619ZM14.5984 20.5044C14.4392 20.5044 14.3148 20.6338 14.3148 20.793C14.3148 21.1114 14.8869 21.1114 14.8869 20.793C14.8869 20.6338 14.7576 20.5044 14.6033 20.5044H14.5984Z" fill="#A17BF4"/>
</svg>
