<svg width="160" height="157" viewBox="0 0 160 157" fill="none" xmlns="http://www.w3.org/2000/svg">
<g opacity="0.1">
<mask id="path-1-outside-1_387_51878" maskUnits="userSpaceOnUse" x="-7.50827" y="-7.69092" width="180.424" height="174.533" fill="black">
<rect fill="white" x="-7.50827" y="-7.69092" width="180.424" height="174.533"/>
<path d="M68.6085 151.993C64.7817 152.92 61.8867 150.792 60.8713 146.6L56.6479 129.167L52.0922 130.271C34.8412 134.45 21.1206 126.392 16.7058 108.169L5.18339 60.6072C0.768659 42.3843 8.82528 28.9214 27.1696 24.4772L106.804 5.18485C125.209 0.725967 138.533 9.00897 142.948 27.2318L154.471 74.7935C158.871 92.9556 150.799 106.358 132.394 110.817L93.0329 120.353L75.4584 146.025C72.9914 149.645 71.2812 151.345 68.6085 151.993ZM72.4972 94.7813L83.3846 81.8544L98.9811 88.3652C102.336 89.7388 105.236 87.1072 103.033 83.5894L94.1027 69.2901L105.248 56.365C107.542 53.6229 105.687 50.2137 102.103 51.082L85.3987 55.1288L76.6652 40.8461C74.7478 37.7093 70.921 38.6364 70.6517 42.3029L69.3626 59.0138L52.6583 63.0606C49.0744 63.9288 48.9395 67.8843 52.28 69.1972L68.1655 75.5737L66.7088 92.3894C66.2849 96.4792 70.1426 97.5382 72.4972 94.7813Z"/>
</mask>
<path d="M68.6085 151.993C64.7817 152.92 61.8867 150.792 60.8713 146.6L56.6479 129.167L52.0922 130.271C34.8412 134.45 21.1206 126.392 16.7058 108.169L5.18339 60.6072C0.768659 42.3843 8.82528 28.9214 27.1696 24.4772L106.804 5.18485C125.209 0.725967 138.533 9.00897 142.948 27.2318L154.471 74.7935C158.871 92.9556 150.799 106.358 132.394 110.817L93.0329 120.353L75.4584 146.025C72.9914 149.645 71.2812 151.345 68.6085 151.993ZM72.4972 94.7813L83.3846 81.8544L98.9811 88.3652C102.336 89.7388 105.236 87.1072 103.033 83.5894L94.1027 69.2901L105.248 56.365C107.542 53.6229 105.687 50.2137 102.103 51.082L85.3987 55.1288L76.6652 40.8461C74.7478 37.7093 70.921 38.6364 70.6517 42.3029L69.3626 59.0138L52.6583 63.0606C49.0744 63.9288 48.9395 67.8843 52.28 69.1972L68.1655 75.5737L66.7088 92.3894C66.2849 96.4792 70.1426 97.5382 72.4972 94.7813Z" fill="#E1D3FF"/>
<path d="M56.6479 129.167L60.5354 128.225L59.5936 124.338L55.7061 125.28L56.6479 129.167ZM93.0329 120.353L92.0911 116.465L90.5993 116.826L89.7322 118.093L93.0329 120.353ZM75.4584 146.025L72.1577 143.765L72.1529 143.772L75.4584 146.025ZM72.4972 94.7813L75.5389 97.379L75.5478 97.3686L75.5567 97.358L72.4972 94.7813ZM83.3846 81.8544L84.9256 78.1631L82.2164 77.0321L80.3252 79.2776L83.3846 81.8544ZM98.9811 88.3652L97.4402 92.0565L97.4529 92.0618L97.4656 92.067L98.9811 88.3652ZM103.033 83.5894L99.6403 85.7082L99.6428 85.7122L103.033 83.5894ZM94.1027 69.2901L91.0734 66.6779L89.149 68.9096L90.71 71.4089L94.1027 69.2901ZM105.248 56.365L108.277 58.9772L108.297 58.9545L108.316 58.9315L105.248 56.365ZM85.3987 55.1288L81.9861 57.2155L83.507 59.7028L86.3405 59.0163L85.3987 55.1288ZM76.6652 40.8461L73.2524 42.9323L73.2526 42.9327L76.6652 40.8461ZM70.6517 42.3029L74.6398 42.6106L74.6404 42.6033L74.6409 42.5959L70.6517 42.3029ZM69.3626 59.0138L70.3044 62.9013L73.1273 62.2174L73.3507 59.3214L69.3626 59.0138ZM52.28 69.1972L53.7701 65.4851L53.7566 65.4797L53.7431 65.4744L52.28 69.1972ZM68.1655 75.5737L72.1506 75.9189L72.4064 72.9658L69.6555 71.8616L68.1655 75.5737ZM66.7088 92.3894L70.6875 92.8019L70.691 92.7683L70.6939 92.7346L66.7088 92.3894ZM68.6085 151.993L67.6667 148.105C66.7161 148.336 66.2547 148.134 65.9955 147.95C65.6616 147.714 65.1061 147.092 64.7589 145.659L60.8713 146.6L56.9838 147.542C57.6519 150.3 59.0516 152.838 61.3757 154.482C63.7745 156.178 66.6741 156.577 69.5503 155.88L68.6085 151.993ZM60.8713 146.6L64.7589 145.659L60.5354 128.225L56.6479 129.167L52.7604 130.109L56.9838 147.542L60.8713 146.6ZM56.6479 129.167L55.7061 125.28L51.1504 126.383L52.0922 130.271L53.034 134.158L57.5897 133.055L56.6479 129.167ZM52.0922 130.271L51.1504 126.383C43.3404 128.275 36.7336 127.317 31.6788 124.212C26.6239 121.108 22.6076 115.541 20.5934 107.227L16.7058 108.169L12.8183 109.111C15.2188 119.019 20.2702 126.594 27.492 131.029C34.7139 135.465 43.5929 136.446 53.034 134.158L52.0922 130.271ZM16.7058 108.169L20.5934 107.227L9.07093 59.6654L5.18339 60.6072L1.29585 61.549L12.8183 109.111L16.7058 108.169ZM5.18339 60.6072L9.07093 59.6654C7.04676 51.3101 7.98435 44.5299 11.0631 39.4477C14.139 34.3701 19.7078 30.4007 28.1114 28.3648L27.1696 24.4772L26.2278 20.5897C16.2871 22.9979 8.65541 27.982 4.22065 35.3027C-0.211359 42.6188 -1.09471 51.6814 1.29585 61.549L5.18339 60.6072ZM27.1696 24.4772L28.1114 28.3648L107.745 9.07239L106.804 5.18485L105.862 1.2973L26.2278 20.5897L27.1696 24.4772ZM106.804 5.18485L107.745 9.07239C116.183 7.02831 122.966 8.00735 128.032 11.1128C133.1 14.2205 137.037 19.8185 139.061 28.1736L142.948 27.2318L146.836 26.29C144.445 16.4223 139.512 8.76741 132.213 4.29258C124.911 -0.184481 115.829 -1.1175 105.862 1.2973L106.804 5.18485ZM142.948 27.2318L139.061 28.1736L150.583 75.7353L154.471 74.7935L158.358 73.8517L146.836 26.29L142.948 27.2318ZM154.471 74.7935L150.583 75.7353C152.599 84.0563 151.656 90.8015 148.57 95.8609C145.484 100.92 139.896 104.884 131.452 106.929L132.394 110.817L133.336 114.704C143.298 112.291 150.948 107.324 155.399 100.027C159.85 92.7298 160.742 83.6928 158.358 73.8517L154.471 74.7935ZM132.394 110.817L131.452 106.929L92.0911 116.465L93.0329 120.353L93.9747 124.24L133.336 114.704L132.394 110.817ZM93.0329 120.353L89.7322 118.093L72.1577 143.765L75.4584 146.025L78.759 148.284L96.3335 122.612L93.0329 120.353ZM75.4584 146.025L72.1529 143.772C69.776 147.26 68.7949 147.832 67.6667 148.105L68.6085 151.993L69.5503 155.88C73.7675 154.859 76.2067 152.03 78.7638 148.277L75.4584 146.025ZM72.4972 94.7813L75.5567 97.358L86.4441 84.4311L83.3846 81.8544L80.3252 79.2776L69.4378 92.2045L72.4972 94.7813ZM83.3846 81.8544L81.8437 85.5456L97.4402 92.0565L98.9811 88.3652L100.522 84.6739L84.9256 78.1631L83.3846 81.8544ZM98.9811 88.3652L97.4656 92.067C100.287 93.222 103.741 92.9652 106.008 90.5488C108.457 87.9395 108.2 84.3042 106.423 81.4666L103.033 83.5894L99.6428 85.7122C99.8703 86.0755 99.7976 86.1439 99.8018 85.9323C99.8067 85.6904 99.9138 85.3522 100.175 85.0744C100.704 84.5098 101.031 84.882 100.497 84.6634L98.9811 88.3652ZM103.033 83.5894L106.426 81.4705L97.4954 67.1712L94.1027 69.2901L90.71 71.4089L99.6404 85.7082L103.033 83.5894ZM94.1027 69.2901L97.132 71.9022L108.277 58.9772L105.248 56.365L102.218 53.7529L91.0734 66.6779L94.1027 69.2901ZM105.248 56.365L108.316 58.9315C110.341 56.5105 110.952 53.1655 109.347 50.3752C107.684 47.4835 104.364 46.4185 101.161 47.1944L102.103 51.082L103.045 54.9695C103.278 54.9131 103.238 54.9807 103.026 54.9016C102.809 54.8201 102.569 54.6372 102.412 54.364C102.26 54.0993 102.246 53.8598 102.264 53.7293C102.281 53.597 102.319 53.6326 102.18 53.7986L105.248 56.365ZM102.103 51.082L101.161 47.1944L84.4569 51.2413L85.3987 55.1288L86.3405 59.0163L103.045 54.9695L102.103 51.082ZM85.3987 55.1288L88.8113 53.0421L80.0778 38.7594L76.6652 40.8461L73.2526 42.9327L81.9861 57.2155L85.3987 55.1288ZM76.6652 40.8461L80.0781 38.7598C78.3785 35.9796 75.3065 34.3586 72.0986 35.1357C68.8907 35.9129 66.9011 38.7601 66.6624 42.0099L70.6517 42.3029L74.6409 42.5959C74.6581 42.3621 74.712 42.3884 74.6035 42.5292C74.4938 42.6715 74.283 42.838 73.9822 42.9108C73.6814 42.9837 73.4178 42.9322 73.2551 42.8558C73.0943 42.7803 73.1301 42.7323 73.2524 42.9323L76.6652 40.8461ZM70.6517 42.3029L66.6635 41.9953L65.3744 58.7061L69.3626 59.0138L73.3507 59.3214L74.6398 42.6106L70.6517 42.3029ZM69.3626 59.0138L68.4207 55.1262L51.7165 59.1731L52.6583 63.0606L53.6001 66.9481L70.3044 62.9013L69.3626 59.0138ZM52.6583 63.0606L51.7165 59.1731C48.4921 59.9542 46.046 62.4492 45.8777 65.759C45.7128 69.0001 47.8063 71.7368 50.8169 72.92L52.28 69.1972L53.7431 65.4744C53.5593 65.4021 53.6007 65.3678 53.6952 65.5019C53.7882 65.6339 53.8825 65.8662 53.8673 66.1653C53.8518 66.4701 53.7276 66.7256 53.5839 66.8844C53.4419 67.0414 53.3803 67.0014 53.6001 66.9481L52.6583 63.0606ZM52.28 69.1972L50.7899 72.9093L66.6754 79.2858L68.1655 75.5737L69.6555 71.8616L53.7701 65.4851L52.28 69.1972ZM68.1655 75.5737L64.1804 75.2285L62.7237 92.0442L66.7088 92.3894L70.6939 92.7346L72.1506 75.9189L68.1655 75.5737ZM66.7088 92.3894L62.7301 91.977C62.3788 95.3663 63.8501 98.7158 67.2137 99.9191C70.3109 101.027 73.5282 99.7333 75.5389 97.379L72.4972 94.7813L69.4556 92.1835C69.1117 92.5862 69.2228 92.1413 69.9084 92.3866C70.2487 92.5083 70.5033 92.7528 70.6278 92.9846C70.7396 93.1929 70.6468 93.1947 70.6875 92.8019L66.7088 92.3894Z" fill="#A17BF4" mask="url(#path-1-outside-1_387_51878)"/>
</g>
</svg>
