<svg preserveAspectRatio="none" width="229" height="179" overflow="visible" viewBox="0 0 229.031 178.921" fill="none" xmlns="http://www.w3.org/2000/svg">
<g id="Group 1000002087" opacity="0.1">
<path id="Vector" d="M211.39 18.1373L28.8355 18.1373C19.0928 18.1373 11.1948 26.0348 11.1948 35.7768L11.1948 161.282C11.1948 171.024 19.0928 178.921 28.8355 178.921H211.39C221.133 178.921 229.031 171.024 229.031 161.282V35.7768C229.031 26.0348 221.133 18.1373 211.39 18.1373Z" fill="#9C9CA6" fill-opacity="0.2"/>
<g id="Group">
<path id="Vector_2" d="M202.401 83.6124L19.8461 83.6124C10.1034 83.6124 2.20542 91.5098 2.20542 101.252L2.20542 147.379C2.20542 157.121 10.1034 165.019 19.8461 165.019H202.401C212.144 165.019 220.042 157.121 220.042 147.379V101.252C220.042 91.5098 212.144 83.6124 202.401 83.6124Z" fill="#E1D3FF"/>
<path id="Vector_3" d="M202.401 167.222H19.8458C8.89977 167.222 2.97467e-05 158.323 2.97467e-05 147.378L2.97467e-05 101.251C2.97467e-05 90.3056 8.89977 81.4065 19.8458 81.4065L202.401 81.4065C213.347 81.4065 222.246 90.3056 222.246 101.251V147.378C222.246 158.323 213.347 167.222 202.401 167.222ZM19.8458 85.8163C11.3342 85.8163 4.41021 92.7398 4.41021 101.251L4.41021 147.378C4.41021 155.889 11.3342 162.813 19.8458 162.813H202.401C210.912 162.813 217.836 155.889 217.836 147.378V101.251C217.836 92.7398 210.912 85.8163 202.401 85.8163L19.8458 85.8163Z" fill="#A17BF4"/>
</g>
<g id="Group_2">
<path id="Vector_4" d="M202.402 2.20665L128.761 2.20665C119.014 2.20665 111.12 10.1003 111.12 19.8461L111.12 165.019C111.12 152.354 121.387 142.088 134.053 142.088H202.402C212.148 142.088 220.042 134.194 220.042 124.448V19.8461C220.042 10.1003 212.148 2.20665 202.402 2.20665Z" fill="white"/>
<path id="Vector_5" d="M113.334 165.018H108.924V19.8456C108.924 8.90034 117.824 0.00122658 128.77 0.00122658L202.411 0.00122658C213.357 0.00122658 222.257 8.90034 222.257 19.8456V124.448C222.257 135.393 213.357 144.292 202.411 144.292H134.062C122.631 144.292 113.334 153.588 113.334 165.018ZM128.77 4.41109C120.258 4.41109 113.334 11.3346 113.334 19.8456V150.81C117.868 144.213 125.471 139.882 134.062 139.882H202.411C210.923 139.882 217.847 132.959 217.847 124.448V19.8456C217.847 11.3346 210.923 4.41109 202.411 4.41109H128.77Z" fill="#A17BF4"/>
</g>
<g id="Group_3">
<path id="Vector_6" d="M19.8459 2.20305L93.487 2.20305C103.234 2.20305 111.128 10.0967 111.128 19.8425L111.128 142.084V165.015C111.128 152.35 100.861 142.084 88.1948 142.084H19.8459C10.0994 142.084 2.20518 134.19 2.20518 124.445L2.20518 19.8425C2.20518 10.0967 10.0994 2.20305 19.8459 2.20305Z" fill="white"/>
<path id="Vector_7" d="M113.334 165.017H108.924C108.924 153.587 99.627 144.291 88.1958 144.291H19.8469C8.90081 144.291 0.00107814 135.392 0.00107814 124.447L0.00107814 19.8446C0.00107814 8.89935 8.90081 0.000233649 19.8469 0.000233649L93.488 0.000233649C98.789 0.000233649 103.773 2.06405 107.521 5.81244C111.27 9.56083 113.334 14.544 113.334 19.8446L113.334 165.017ZM19.8469 4.4101C11.3352 4.4101 4.41125 11.3336 4.41125 19.8446L4.41125 124.447C4.41125 132.958 11.3352 139.881 19.8469 139.881H88.1958C96.7868 139.881 104.39 144.212 108.924 150.809L108.924 19.8446C108.924 15.7258 107.318 11.8451 104.399 8.93462C101.479 6.02411 97.6071 4.4101 93.488 4.4101L19.8469 4.4101Z" fill="#A17BF4"/>
</g>
<path id="Vector_8" d="M197.824 23.6026L133.347 23.6026C130.892 23.6026 128.902 25.5928 128.902 28.0478C128.902 30.5028 130.892 32.4929 133.347 32.4929H197.824C200.279 32.4929 202.269 30.5028 202.269 28.0478C202.269 25.5928 200.279 23.6026 197.824 23.6026Z" fill="#9C9CA6" fill-opacity="0.2"/>
<path id="Vector_9" d="M197.824 50.9788H133.347C130.892 50.9788 128.901 52.9689 128.901 55.4239C128.901 57.8789 130.892 59.8691 133.347 59.8691H197.824C200.279 59.8691 202.269 57.8789 202.269 55.4239C202.269 52.9689 200.279 50.9788 197.824 50.9788Z" fill="#9C9CA6" fill-opacity="0.2"/>
<path id="Vector_10" d="M197.824 79.169H133.347C130.892 79.169 128.902 81.1592 128.902 83.6142C128.902 86.0692 130.892 88.0593 133.347 88.0593H197.824C200.279 88.0593 202.27 86.0692 202.27 83.6142C202.27 81.1592 200.279 79.169 197.824 79.169Z" fill="#9C9CA6" fill-opacity="0.2"/>
<path id="Vector_11" d="M197.824 107.346H133.347C130.892 107.346 128.901 109.336 128.901 111.791C128.901 114.246 130.892 116.236 133.347 116.236H197.824C200.279 116.236 202.269 114.246 202.269 111.791C202.269 109.336 200.279 107.346 197.824 107.346Z" fill="#9C9CA6" fill-opacity="0.2"/>
<path id="Vector_12" d="M88.9021 23.6034L24.4253 23.6034C21.9701 23.6034 19.9798 25.5936 19.9798 28.0485C19.9798 30.5035 21.9701 32.4937 24.4253 32.4937H88.9021C91.3572 32.4937 93.3475 30.5035 93.3475 28.0485C93.3475 25.5936 91.3572 23.6034 88.9021 23.6034Z" fill="#9C9CA6" fill-opacity="0.2"/>
<path id="Vector_13" d="M88.901 50.9763H24.4242C21.969 50.9763 19.9787 52.9665 19.9787 55.4215C19.9787 57.8765 21.969 59.8666 24.4242 59.8666H88.901C91.3561 59.8666 93.3464 57.8765 93.3464 55.4215C93.3464 52.9665 91.3561 50.9763 88.901 50.9763Z" fill="#9C9CA6" fill-opacity="0.2"/>
<path id="Vector_14" d="M88.9015 79.1666H24.4247C21.9696 79.1666 19.9793 81.1568 19.9793 83.6118C19.9793 86.0668 21.9696 88.0569 24.4247 88.0569H88.9015C91.3567 88.0569 93.347 86.0668 93.347 83.6118C93.347 81.1568 91.3567 79.1666 88.9015 79.1666Z" fill="#9C9CA6" fill-opacity="0.2"/>
<path id="Vector_15" d="M88.902 107.347H24.4252C21.97 107.347 19.9797 109.337 19.9797 111.792C19.9797 114.247 21.97 116.237 24.4252 116.237H88.902C91.3571 116.237 93.3474 114.247 93.3474 111.792C93.3474 109.337 91.3571 107.347 88.902 107.347Z" fill="#9C9CA6" fill-opacity="0.2"/>
<path id="Vector_16" d="M144.452 86.1793L142.353 79.194C141.938 77.8005 139.972 77.8005 139.548 79.194L137.458 86.1616C137.158 87.1759 135.905 87.5463 135.103 86.8584C134.468 86.3116 134.071 85.509 134.071 84.6094V6.63408C134.071 4.19101 136.055 2.20657 138.499 2.20657L143.411 2.20657C145.855 2.20657 147.839 4.19101 147.839 6.63408V84.6094C147.839 85.5972 147.363 86.4615 146.622 87.0083C145.846 87.5816 144.726 87.1053 144.452 86.1881V86.1793Z" fill="#A17BF4"/>
</g>
</svg>
