<svg width="24" height="24" viewBox="0 0 24 24" fill="none" xmlns="http://www.w3.org/2000/svg">
<path d="M12 2C8.99232 2 7.04207 4.01899 4.7356 4.7549C3.79778 5.05413 3.32886 5.20374 3.13909 5.41465C2.94932 5.62556 2.89375 5.93375 2.78261 6.55013C1.59332 13.146 4.19279 19.244 10.3922 21.6175C11.0583 21.8725 11.3913 22 12.0034 22C12.6154 22 12.9485 21.8725 13.6145 21.6175C19.8135 19.2439 22.4105 13.146 21.2209 6.55013C21.1097 5.93364 21.0541 5.6254 20.8643 5.41449C20.6745 5.20358 20.2056 5.05405 19.2678 4.75499C16.9604 4.01915 15.008 2 12 2Z" stroke="#8251EB" stroke-width="1.5" stroke-linecap="round" stroke-linejoin="round"/>
<path d="M12.0019 8.5H12.0109" stroke="#8251EB" stroke-width="2" stroke-linecap="round" stroke-linejoin="round"/>
<path d="M12.0019 11.5L12.0019 16" stroke="#8251EB" stroke-width="1.5" stroke-linecap="round" stroke-linejoin="round"/>
</svg>