<svg width="195" height="241" viewBox="0 0 195 241" fill="none" xmlns="http://www.w3.org/2000/svg">
<path d="M148.61 81.9961H54.7322C46.6966 81.9961 40.1825 88.5115 40.1825 96.5486V179.718C40.1825 187.755 46.6966 194.271 54.7322 194.271H148.61C156.645 194.271 163.16 187.755 163.16 179.718V96.5486C163.16 88.5115 156.645 81.9961 148.61 81.9961Z" fill="#9C9CA6" fill-opacity="0.2"/>
<path d="M137.519 73.0488H43.6413C35.6057 73.0488 29.0916 79.5642 29.0916 87.6013V170.771C29.0916 178.808 35.6057 185.323 43.6413 185.323H137.519C145.554 185.323 152.069 178.808 152.069 170.771V87.6013C152.069 79.5642 145.554 73.0488 137.519 73.0488Z" fill="white"/>
<path d="M29.7173 92.0293C29.7173 82.0882 37.7762 74.0293 47.7173 74.0293H129.969C142.096 74.0293 151.926 83.8597 151.926 95.9862V103.413H29.7173V92.0293Z" fill="#E1D3FF"/>
<path d="M137.519 187.739H43.6412C34.2891 187.739 26.6761 180.124 26.6761 170.771V87.6011C26.6761 78.2473 34.2891 70.6328 43.6412 70.6328H137.519C146.871 70.6328 154.484 78.2473 154.484 87.6011V170.771C154.484 180.124 146.871 187.739 137.519 187.739ZM43.6412 75.4643C36.946 75.4643 31.5067 80.9046 31.5067 87.6011V170.771C31.5067 177.467 36.946 182.907 43.6412 182.907H137.519C144.214 182.907 149.653 177.467 149.653 170.771V87.6011C149.653 80.9046 144.214 75.4643 137.519 75.4643H43.6412Z" fill="#8251EB"/>
<path d="M152.069 99.0508H29.0916V103.882H152.069V99.0508Z" fill="#8251EB"/>
<path d="M68.0357 69.5688C68.0357 66.0359 65.1722 63.1719 61.64 63.1719C58.1077 63.1719 55.2443 66.0359 55.2443 69.5688V78.2172C55.2443 81.7501 58.1077 84.6141 61.64 84.6141C65.1722 84.6141 68.0357 81.7501 68.0357 78.2172V69.5688Z" fill="#A17BF4"/>
<path d="M61.64 87.0315C56.7804 87.0315 52.829 83.0794 52.829 78.2189V69.5705C52.829 64.71 56.7804 60.7578 61.64 60.7578C66.4995 60.7578 70.451 64.71 70.451 69.5705V78.2189C70.451 83.0794 66.4995 87.0315 61.64 87.0315ZM61.64 65.5893C59.4469 65.5893 57.6596 67.377 57.6596 69.5705V78.2189C57.6596 80.4124 59.4469 82.2 61.64 82.2C63.833 82.2 65.6204 80.4124 65.6204 78.2189V69.5705C65.6204 67.377 63.833 65.5893 61.64 65.5893Z" fill="#8251EB"/>
<path d="M125.954 69.5688C125.954 66.0359 123.091 63.1719 119.559 63.1719C116.027 63.1719 113.163 66.0359 113.163 69.5688V78.2172C113.163 81.7501 116.027 84.6141 119.559 84.6141C123.091 84.6141 125.954 81.7501 125.954 78.2172V69.5688Z" fill="#A17BF4"/>
<path d="M119.559 87.0315C114.699 87.0315 110.748 83.0794 110.748 78.2189V69.5705C110.748 64.71 114.699 60.7578 119.559 60.7578C124.418 60.7578 128.37 64.71 128.37 69.5705V78.2189C128.37 83.0794 124.418 87.0315 119.559 87.0315ZM119.559 65.5893C117.366 65.5893 115.578 67.377 115.578 69.5705V78.2189C115.578 80.4124 117.366 82.2 119.559 82.2C121.752 82.2 123.539 80.4124 123.539 78.2189V69.5705C123.539 67.377 121.752 65.5893 119.559 65.5893Z" fill="#8251EB"/>
<path d="M115.858 159.54L115.851 159.547C113.867 161.532 113.867 164.75 115.851 166.735L136.81 187.698C138.795 189.683 142.012 189.683 143.997 187.698L144.004 187.691C145.988 185.706 145.988 182.488 144.004 180.503L123.045 159.54C121.06 157.555 117.843 157.555 115.858 159.54Z" fill="#E1D3FF"/>
<path d="M140.398 191.603C138.475 191.603 136.553 190.869 135.094 189.41L114.139 168.45C111.212 165.523 111.212 160.768 114.139 157.84C117.066 154.913 121.82 154.913 124.747 157.84L145.702 178.8C148.629 181.727 148.629 186.482 145.702 189.41C144.243 190.869 142.321 191.603 140.398 191.603ZM119.443 160.478C118.757 160.478 118.071 160.739 117.559 161.261C116.516 162.305 116.516 163.996 117.559 165.039L138.514 185.998C139.558 187.042 141.248 187.042 142.292 185.998C143.335 184.955 143.335 183.264 142.292 182.22L121.337 161.261C120.815 160.739 120.129 160.478 119.453 160.478H119.443Z" fill="#A17BF4"/>
<path d="M103.415 171.359C118.056 171.359 129.925 159.487 129.925 144.843C129.925 130.199 118.056 118.328 103.415 118.328C88.7737 118.328 76.9047 130.199 76.9047 144.843C76.9047 159.487 88.7737 171.359 103.415 171.359Z" fill="white"/>
<path d="M103.415 173.764C87.4644 173.764 74.4895 160.787 74.4895 144.833C74.4895 128.88 87.4644 115.902 103.415 115.902C119.366 115.902 132.341 128.88 132.341 144.833C132.341 160.787 119.366 173.764 103.415 173.764ZM103.415 120.744C90.1309 120.744 79.3201 131.556 79.3201 144.843C79.3201 158.13 90.1309 168.943 103.415 168.943C116.699 168.943 127.51 158.13 127.51 144.843C127.51 131.556 116.699 120.744 103.415 120.744Z" fill="#A17BF4"/>
<path d="M113.595 151.599L96.6595 134.661C95.7163 133.718 94.187 133.718 93.2438 134.661C92.3005 135.604 92.3005 137.134 93.2438 138.077L110.179 155.016C111.122 155.959 112.652 155.959 113.595 155.016C114.538 154.072 114.538 152.543 113.595 151.599Z" fill="#A17BF4"/>
<path d="M110.179 134.666L93.2438 151.604C92.3005 152.548 92.3005 154.077 93.2438 155.021C94.187 155.964 95.7163 155.964 96.6595 155.021L113.595 138.082C114.538 137.139 114.538 135.609 113.595 134.666C112.652 133.722 111.122 133.722 110.179 134.666Z" fill="#A17BF4"/>
<path d="M25.1224 54.9562C24.2239 55.9099 22.7263 55.9743 21.7446 55.1064L1.65968 35.0202C0.745734 34.1062 0.709602 32.6359 1.57754 31.6781C2.43435 30.7326 3.87738 30.613 4.87806 31.4047L4.99269 31.4954L25.0722 51.5762C26 52.504 26.0222 54.0012 25.1224 54.9562Z" fill="#E1D3FF"/>
<path d="M5.09418 55.0062C4.1678 55.9326 2.67329 55.9564 1.7179 55.0599C0.760915 54.1619 0.698218 52.658 1.5676 51.6749L21.6449 31.5964C22.5704 30.6708 24.0637 30.6471 25.0181 31.5429C25.9351 32.4037 26.0416 33.8227 25.2633 34.8107L25.1701 34.929L5.09418 55.0062Z" fill="#E1D3FF"/>
<path d="M35.6411 15.5817C31.4768 15.5817 28.0902 12.2229 28.0902 8.09835C28.0902 3.97382 31.4768 0.609375 35.6411 0.609375C39.8053 0.609375 43.1863 3.96824 43.1863 8.09835C43.1863 12.2285 39.7997 15.5817 35.6411 15.5817ZM35.6411 4.10796C33.4265 4.10796 31.6233 5.89637 31.6233 8.09276C31.6233 10.2892 33.4265 12.0776 35.6411 12.0776C37.8556 12.0776 39.6588 10.2892 39.6588 8.09276C39.6588 5.89637 37.8556 4.10796 35.6411 4.10796Z" fill="#A17BF4"/>
<path d="M55.016 38.4754C53.2406 38.4754 51.7988 37.0336 51.7988 35.2582C51.7988 33.4828 53.2406 32.041 55.016 32.041C56.7914 32.041 58.2332 33.4828 58.2332 35.2582C58.2332 37.0336 56.7914 38.4754 55.016 38.4754ZM55.016 34.9359C54.8351 34.9359 54.6937 35.0829 54.6937 35.2639C54.6937 35.6257 55.344 35.6257 55.344 35.2639C55.344 35.0829 55.1969 34.9359 55.0217 34.9359H55.016Z" fill="#E1D3FF"/>
<path d="M193.385 209.884C192.486 210.838 190.989 210.902 190.007 210.034L169.922 189.948C169.008 189.034 168.972 187.564 169.84 186.606C170.697 185.66 172.14 185.541 173.141 186.332L173.255 186.423L193.335 206.504C194.263 207.432 194.285 208.929 193.385 209.884Z" fill="#E1D3FF"/>
<path d="M173.357 209.934C172.43 210.86 170.936 210.884 169.98 209.988C169.023 209.09 168.961 207.586 169.83 206.603L189.907 186.524C190.833 185.598 192.326 185.575 193.281 186.471C194.198 187.331 194.304 188.75 193.526 189.738L193.433 189.857L173.357 209.934Z" fill="#E1D3FF"/>
<path d="M170.557 226.247C170.597 227.517 169.621 228.591 168.353 228.671L168.272 228.676L149.323 228.671C148.052 228.671 147.011 227.661 146.972 226.391C146.933 225.118 147.913 224.046 149.184 223.97L149.25 223.966L168.203 223.967C169.475 223.967 170.516 224.976 170.557 226.247Z" fill="#A17BF4"/>
<path d="M161.116 235.761C161.116 237.031 160.108 238.072 158.838 238.112C157.567 238.152 156.494 237.175 156.416 235.906L156.411 235.832L156.411 216.882C156.411 215.609 157.422 214.567 158.693 214.528C159.965 214.489 161.037 215.467 161.116 216.737L161.12 216.81L161.116 235.761Z" fill="#A17BF4"/>
<path d="M133.433 219.283C129.268 219.283 125.882 215.924 125.882 211.8C125.882 207.675 129.268 204.311 133.433 204.311C137.597 204.311 140.978 207.669 140.978 211.8C140.978 215.93 137.591 219.283 133.433 219.283ZM133.433 207.809C131.218 207.809 129.415 209.598 129.415 211.794C129.415 213.99 131.218 215.779 133.433 215.779C135.647 215.779 137.45 213.99 137.45 211.794C137.45 209.598 135.647 207.809 133.433 207.809Z" fill="#E1D3FF"/>
</svg>
