<svg width="28" height="28" viewBox="0 0 28 28" fill="none" xmlns="http://www.w3.org/2000/svg">
<path d="M11.6659 13.9991H16.3323" stroke="currentColor" stroke-width="2.33318" stroke-linecap="round" stroke-linejoin="round"/>
<path d="M11.6659 9.33273H16.3323" stroke="currentColor" stroke-width="2.33318" stroke-linecap="round" stroke-linejoin="round"/>
<path d="M16.3323 24.4984V20.9986C16.3323 20.3798 16.0865 19.7864 15.6489 19.3488C15.2114 18.9113 14.6179 18.6655 13.9991 18.6655C13.3803 18.6655 12.7868 18.9113 12.3493 19.3488C11.9117 19.7864 11.6659 20.3798 11.6659 20.9986V24.4984" stroke="currentColor" stroke-width="2.33318" stroke-linecap="round" stroke-linejoin="round"/>
<path d="M6.99955 11.6659H4.66637C4.04757 11.6659 3.45412 11.9117 3.01656 12.3493C2.579 12.7868 2.33319 13.3803 2.33319 13.9991V22.1652C2.33319 22.784 2.579 23.3775 3.01656 23.815C3.45412 24.2526 4.04757 24.4984 4.66637 24.4984H23.3318C23.9506 24.4984 24.5441 24.2526 24.9816 23.815C25.4192 23.3775 25.665 22.784 25.665 22.1652V10.4993C25.665 9.88052 25.4192 9.28707 24.9816 8.84951C24.5441 8.41195 23.9506 8.16614 23.3318 8.16614H20.9986" stroke="currentColor" stroke-width="2.33318" stroke-linecap="round" stroke-linejoin="round"/>
<path d="M6.99955 24.4984V5.83296C6.99955 5.21416 7.24537 4.6207 7.68292 4.18315C8.12048 3.74559 8.71394 3.49977 9.33273 3.49977H18.6655C19.2843 3.49977 19.8777 3.74559 20.3153 4.18315C20.7528 4.6207 20.9986 5.21416 20.9986 5.83296V24.4984" stroke="currentColor" stroke-width="2.33318" stroke-linecap="round" stroke-linejoin="round"/>
</svg>
