<svg width="24" height="24" viewBox="0 0 24 24" fill="none" xmlns="http://www.w3.org/2000/svg">
<path d="M14.25 17.75H5.75C4.09315 17.75 2.75 16.4069 2.75 14.75V6.75C2.75 5.09315 4.09315 3.75 5.75 3.75H16.75C18.4069 3.75 19.75 5.09315 19.75 6.75V8.25M19.75 8.25H16.25C14.8693 8.25 13.75 9.36929 13.75 10.75C13.75 12.1307 14.8693 13.25 16.25 13.25M19.75 8.25H20.6127C20.6885 8.25 20.75 8.31145 20.75 8.38725V13.1127M16.76 10.75H16.75M18.75 15.25V20.75M18.75 20.75L16.75 18.75M18.75 20.75L20.75 18.75" stroke="white" stroke-width="1.5" stroke-linecap="round" stroke-linejoin="round"/>
</svg>
