<svg width="28" height="28" viewBox="0 0 28 28" fill="none" xmlns="http://www.w3.org/2000/svg">
<path d="M17.4989 24.4984V15.1657C17.4989 14.8563 17.376 14.5596 17.1572 14.3408C16.9384 14.122 16.6417 13.9991 16.3323 13.9991H11.6659C11.3565 13.9991 11.0598 14.122 10.841 14.3408C10.6222 14.5596 10.4993 14.8563 10.4993 15.1657V24.4984" stroke="currentColor" stroke-width="2.33318" stroke-linecap="round" stroke-linejoin="round"/>
<path d="M3.49978 11.6659C3.4997 11.3265 3.57366 10.9912 3.71652 10.6833C3.85937 10.3754 4.06767 10.1024 4.32689 9.88335L12.493 2.8838C12.9142 2.52789 13.4477 2.33261 13.9991 2.33261C14.5505 2.33261 15.084 2.52789 15.5052 2.8838L23.6713 9.88335C23.9305 10.1024 24.1388 10.3754 24.2817 10.6833C24.4245 10.9912 24.4985 11.3265 24.4984 11.6659V22.1652C24.4984 22.784 24.2526 23.3775 23.815 23.815C23.3775 24.2526 22.784 24.4984 22.1652 24.4984H5.83296C5.21416 24.4984 4.62071 24.2526 4.18315 23.815C3.74559 23.3775 3.49978 22.784 3.49978 22.1652V11.6659Z" stroke="currentColor" stroke-width="2.33318" stroke-linecap="round" stroke-linejoin="round"/>
</svg>
