<svg preserveAspectRatio="none" width="100%" height="100%" overflow="visible" style="display: block;" viewBox="0 0 31.9924 31.9924" fill="none" xmlns="http://www.w3.org/2000/svg">
<g id="Icon">
<path id="Vector" d="M28.5532 14.5587C28.7919 14.4534 28.9944 14.2804 29.1357 14.0612C29.277 13.842 29.3508 13.5861 29.3481 13.3253C29.3455 13.0645 29.2663 12.8102 29.1205 12.5939C28.9747 12.3776 28.7687 12.2089 28.5279 12.1086L17.1026 6.90448C16.7553 6.74605 16.378 6.66406 15.9962 6.66406C15.6144 6.66406 15.2371 6.74605 14.8898 6.90448L3.46584 12.1033C3.22852 12.2072 3.02663 12.378 2.88487 12.5949C2.7431 12.8117 2.6676 13.0652 2.6676 13.3243C2.6676 13.5834 2.7431 13.8368 2.88487 14.0537C3.02663 14.2706 3.22852 14.4414 3.46584 14.5453L14.8898 19.7548C15.2371 19.9132 15.6144 19.9952 15.9962 19.9952C16.378 19.9952 16.7553 19.9132 17.1026 19.7548L28.5532 14.5587Z" stroke="white" stroke-width="2.66604" stroke-linecap="round" stroke-linejoin="round"/>
<path id="Vector_2" d="M29.3264 13.332V21.3301" stroke="white" stroke-width="2.66604" stroke-linecap="round" stroke-linejoin="round"/>
<path id="Vector_3" d="M7.99811 16.6641V21.3296C7.99811 22.3902 8.84076 23.4074 10.3407 24.1574C11.8406 24.9074 13.875 25.3287 15.9962 25.3287C18.1174 25.3287 20.1518 24.9074 21.6517 24.1574C23.1517 23.4074 23.9943 22.3902 23.9943 21.3296V16.6641" stroke="white" stroke-width="2.66604" stroke-linecap="round" stroke-linejoin="round"/>
</g>
</svg>
