<svg width="24" height="24" viewBox="0 0 24 24" fill="none" xmlns="http://www.w3.org/2000/svg">
<!-- Calendar body -->
<path d="M2.75 10.75C2.75 6.97876 2.75 5.09315 3.92157 3.92157C5.09315 2.75 6.97876 2.75 10.75 2.75H14.75C18.5212 2.75 20.4069 2.75 21.5784 3.92157C22.75 5.09315 22.75 6.97876 22.75 10.75V12.75C22.75 16.5212 22.75 18.4069 21.5784 19.5784C20.4069 20.75 18.5212 20.75 14.75 20.75H10.75C6.97876 20.75 5.09315 20.75 3.92157 19.5784C2.75 18.4069 2.75 16.5212 2.75 12.75V10.75Z" stroke="currentColor" stroke-width="1.5"/>
<!-- Plus sign -->
<path d="M18.75 16.75L16.75 16.75M16.75 16.75L14.75 16.75M16.75 16.75L16.75 14.75M16.75 16.75L16.75 18.75" stroke="currentColor" stroke-width="1.5" stroke-linecap="round"/>
<!-- Calendar pins -->
<path d="M8.75 4.25V1.75" stroke="currentColor" stroke-width="1.5" stroke-linecap="round"/>
<path d="M16.75 4.25V1.75" stroke="currentColor" stroke-width="1.5" stroke-linecap="round"/>
<!-- Horizontal line -->
<path d="M3.75 8.75H21.75" stroke="currentColor" stroke-width="1.5" stroke-linecap="round"/>
</svg>
