<svg width="20" height="20" viewBox="0 0 20 20" fill="none" xmlns="http://www.w3.org/2000/svg">
<path d="M11.5866 7.86975C12.0699 6.56382 13.9169 6.56382 14.4002 7.86975L15.1848 9.99031C15.3368 10.4009 15.6605 10.7246 16.0711 10.8765L18.1916 11.6612C19.4976 12.1444 19.4976 13.9914 18.1916 14.4747L16.0711 15.2593C15.6605 15.4112 15.3368 15.735 15.1848 16.1455L14.4002 18.2661C13.9169 19.572 12.0699 19.572 11.5866 18.2661L10.802 16.1455C10.65 15.735 10.3263 15.4112 9.91575 15.2593L7.79519 14.4747C6.48926 13.9914 6.48926 12.1444 7.79519 11.6612L9.91575 10.8765C10.3263 10.7246 10.65 10.4009 10.802 9.99031L11.5866 7.86975Z" stroke="currentColor" stroke-width="1.5"/>
<path d="M3.66698 1.87415C4.15022 0.568223 5.9973 0.568225 6.48054 1.87416L6.72503 2.53489C6.87696 2.94547 7.20068 3.26919 7.61126 3.42112L8.272 3.66561C9.57793 4.14885 9.57793 5.99593 8.272 6.47917L7.61126 6.72366C7.20068 6.87559 6.87696 7.19931 6.72503 7.60989L6.48054 8.27063C5.9973 9.57656 4.15022 9.57656 3.66698 8.27063L3.42249 7.60989C3.27056 7.19931 2.94684 6.87559 2.53626 6.72366L1.87551 6.47917C0.569586 5.99593 0.569587 4.14885 1.87552 3.66561L2.53626 3.42112C2.94684 3.26919 3.27056 2.94547 3.42249 2.53489L3.66698 1.87415Z" stroke="currentColor" stroke-width="1.5"/>
</svg>
