<svg width="21" height="24" viewBox="0 0 21 24" fill="none" xmlns="http://www.w3.org/2000/svg">
<path d="M18.6453 9.32173C18.5544 9.37744 16.3894 10.5531 16.3894 13.1598C16.4914 16.1326 19.1215 17.1752 19.1666 17.1752C19.1215 17.2309 18.7696 18.5954 17.727 20.0257C16.8996 21.2578 15.9812 22.5 14.5866 22.5C13.2601 22.5 12.7839 21.6788 11.2533 21.6788C9.60954 21.6788 9.14444 22.5 7.88593 22.5C6.49137 22.5 5.50497 21.1912 4.63245 19.9707C3.4989 18.3732 2.53543 15.8664 2.50142 13.4593C2.47849 12.1838 2.72842 10.93 3.36285 9.86507C4.2583 8.37831 5.85694 7.36905 7.60273 7.33577C8.94036 7.29164 10.1308 8.23434 10.9472 8.23434C11.7295 8.23434 13.1921 7.33577 14.8469 7.33577C15.5612 7.33649 17.466 7.54703 18.6453 9.32173ZM10.834 7.0811C10.5959 5.91629 11.2533 4.75148 11.8655 4.00846C12.6478 3.1099 13.8834 2.5 14.9489 2.5C15.017 3.66481 14.5859 4.80719 13.8154 5.6392C13.124 6.53777 11.9336 7.21422 10.834 7.0811Z" fill="#170E0D"/>
</svg>
