<svg width="16" height="16" viewBox="0 0 16 16" fill="none" xmlns="http://www.w3.org/2000/svg">
<path fill-rule="evenodd" clip-rule="evenodd" d="M13.2927 2.70891C12.9022 2.31838 12.2691 2.31838 11.8785 2.70891L7.29274 7.2947C7.10521 7.48223 6.99985 7.73659 6.99985 8.0018C6.99985 8.26702 7.10521 8.52137 7.29274 8.70891L11.8785 13.2947C12.2691 13.6852 12.9022 13.6852 13.2927 13.2947C13.6833 12.9042 13.6833 12.271 13.2927 11.8805L9.41406 8.0018L13.2927 4.12312C13.6833 3.7326 13.6833 3.09943 13.2927 2.70891Z" fill="#A17BF4"/>
<path fill-rule="evenodd" clip-rule="evenodd" d="M2.70696 2.70891C3.09748 2.31838 3.73064 2.31838 4.12117 2.70891L8.70696 7.2947C8.89449 7.48223 8.99985 7.73659 8.99985 8.0018C8.99985 8.26702 8.89449 8.52137 8.70696 8.70891L4.12117 13.2947C3.73064 13.6852 3.09748 13.6852 2.70696 13.2947C2.31643 12.9042 2.31643 12.271 2.70696 11.8805L6.58564 8.0018L2.70696 4.12312C2.31643 3.7326 2.31643 3.09943 2.70696 2.70891Z" fill="#A17BF4"/>
<path fill-rule="evenodd" clip-rule="evenodd" d="M13.2927 2.70891C12.9022 2.31838 12.2691 2.31838 11.8785 2.70891L7.29274 7.2947C7.10521 7.48223 6.99985 7.73659 6.99985 8.0018C6.99985 8.26702 7.10521 8.52137 7.29274 8.70891L11.8785 13.2947C12.2691 13.6852 12.9022 13.6852 13.2927 13.2947C13.6833 12.9042 13.6833 12.271 13.2927 11.8805L9.41406 8.0018L13.2927 4.12312C13.6833 3.7326 13.6833 3.09943 13.2927 2.70891Z" stroke="#A17BF4" stroke-width="0.5" stroke-linecap="round" stroke-linejoin="round"/>
<path fill-rule="evenodd" clip-rule="evenodd" d="M2.70696 2.70891C3.09748 2.31838 3.73064 2.31838 4.12117 2.70891L8.70696 7.2947C8.89449 7.48223 8.99985 7.73659 8.99985 8.0018C8.99985 8.26702 8.89449 8.52137 8.70696 8.70891L4.12117 13.2947C3.73064 13.6852 3.09748 13.6852 2.70696 13.2947C2.31643 12.9042 2.31643 12.271 2.70696 11.8805L6.58564 8.0018L2.70696 4.12312C2.31643 3.7326 2.31643 3.09943 2.70696 2.70891Z" stroke="#A17BF4" stroke-width="0.5" stroke-linecap="round" stroke-linejoin="round"/>
</svg>
