<svg preserveAspectRatio="none" width="100%" height="100%" overflow="visible" style="display: block;" viewBox="0 0 19.9905 19.9905" fill="none" xmlns="http://www.w3.org/2000/svg">
<g id="Icon" clip-path="url(#clip0_2951_12115)">
<path id="Vector" d="M9.17646 2.34389C9.21215 2.15282 9.31354 1.98025 9.46307 1.85606C9.61261 1.73187 9.80086 1.66389 9.99524 1.66389C10.1896 1.66389 10.3779 1.73187 10.5274 1.85606C10.6769 1.98025 10.7783 2.15282 10.814 2.34389L11.6894 6.97335C11.7516 7.30248 11.9116 7.60523 12.1484 7.84208C12.3853 8.07892 12.688 8.23887 13.0171 8.30105L17.6466 9.17646C17.8377 9.21215 18.0102 9.31354 18.1344 9.46307C18.2586 9.61261 18.3266 9.80086 18.3266 9.99524C18.3266 10.1896 18.2586 10.3779 18.1344 10.5274C18.0102 10.6769 17.8377 10.7783 17.6466 10.814L13.0171 11.6894C12.688 11.7516 12.3853 11.9116 12.1484 12.1484C11.9116 12.3853 11.7516 12.688 11.6894 13.0171L10.814 17.6466C10.7783 17.8377 10.6769 18.0102 10.5274 18.1344C10.3779 18.2586 10.1896 18.3266 9.99524 18.3266C9.80086 18.3266 9.61261 18.2586 9.46307 18.1344C9.31354 18.0102 9.21215 17.8377 9.17646 17.6466L8.30105 13.0171C8.23887 12.688 8.07892 12.3853 7.84208 12.1484C7.60523 11.9116 7.30248 11.7516 6.97335 11.6894L2.34389 10.814C2.15282 10.7783 1.98025 10.6769 1.85606 10.5274C1.73187 10.3779 1.66389 10.1896 1.66389 9.99524C1.66389 9.80086 1.73187 9.61261 1.85606 9.46307C1.98025 9.31354 2.15282 9.21215 2.34389 9.17646L6.97335 8.30105C7.30248 8.23887 7.60523 8.07892 7.84208 7.84208C8.07892 7.60523 8.23887 7.30248 8.30105 6.97335L9.17646 2.34389Z" stroke="currentColor" stroke-width="1.66587" stroke-linecap="round" stroke-linejoin="round"/>
<path id="Vector_2" d="M16.6587 1.66587V4.99761" stroke="currentColor" stroke-width="1.66587" stroke-linecap="round" stroke-linejoin="round"/>
<path id="Vector_3" d="M18.3246 3.33174H14.9928" stroke="currentColor" stroke-width="1.66587" stroke-linecap="round" stroke-linejoin="round"/>
<path id="Vector_4" d="M3.33174 18.3246C4.25178 18.3246 4.99761 17.5787 4.99761 16.6587C4.99761 15.7387 4.25178 14.9928 3.33174 14.9928C2.41171 14.9928 1.66587 15.7387 1.66587 16.6587C1.66587 17.5787 2.41171 18.3246 3.33174 18.3246Z" stroke="currentColor" stroke-width="1.66587" stroke-linecap="round" stroke-linejoin="round"/>
</g>
<defs>
<clipPath id="clip0_2951_12115">
<rect width="19.9905" height="19.9905" fill="white"/>
</clipPath>
</defs>
</svg>
